<svg xmlns="http://www.w3.org/2000/svg" width="512" height="512"><g fill="#fd4848"><path d="M42.667 59.733H51.2v34.133a8.53 8.53 0 008.533 8.533 8.536 8.536 0 008.533-8.533V59.733H76.8v25.6a8.53 8.53 0 008.533 8.533 8.536 8.536 0 008.533-8.533v-25.6h51.2v25.6a8.53 8.53 0 008.533 8.533 8.536 8.536 0 008.533-8.533v-25.6h51.2v25.6a8.53 8.53 0 008.533 8.533 8.536 8.536 0 008.533-8.533v-25.6h51.2v25.6a8.53 8.53 0 008.533 8.533 8.536 8.536 0 008.533-8.533v-25.6h51.2v25.6a8.53 8.53 0 008.533 8.533 8.536 8.536 0 008.533-8.533v-25.6h51.2v25.6a8.53 8.53 0 008.533 8.533 8.536 8.536 0 008.533-8.533v-25.6h8.533v34.133a8.53 8.53 0 008.533 8.533 8.536 8.536 0 008.533-8.533V59.733h8.533a8.536 8.536 0 008.533-8.533 8.536 8.536 0 00-8.533-8.533H42.667a8.53 8.53 0 00-8.533 8.533 8.53 8.53 0 008.533 8.533z"/><path d="M187.895 76.8c-4.702 0-8.482 3.823-8.482 8.533s3.857 8.533 8.576 8.533c4.71 0 8.533-3.823 8.533-8.533S192.7 76.8 187.989 76.8h-.094zm68.267 0c-4.702 0-8.482 3.823-8.482 8.533s3.857 8.533 8.576 8.533c4.71 0 8.533-3.823 8.533-8.533s-3.823-8.533-8.533-8.533h-.094zm136.533 0c-4.702 0-8.482 3.823-8.482 8.533s3.857 8.533 8.576 8.533c4.71 0 8.533-3.823 8.533-8.533S397.5 76.8 392.789 76.8h-.094zm-68.266 0c-4.71 0-8.482 3.823-8.482 8.533s3.857 8.533 8.576 8.533c4.71 0 8.533-3.823 8.533-8.533s-3.823-8.533-8.533-8.533h-.094zm-204.8 0c-4.71 0-8.482 3.823-8.482 8.533s3.857 8.533 8.576 8.533c4.71 0 8.533-3.823 8.533-8.533s-3.823-8.533-8.533-8.533h-.094zm230.238 119.467a8.53 8.53 0 00-8.533 8.533v34.133a8.53 8.53 0 008.533 8.533h68.267a8.536 8.536 0 008.533-8.533V204.8a8.536 8.536 0 00-8.533-8.533h-68.267zM409.6 230.4h-51.2v-17.067h51.2V230.4z"/><path d="M51.2 174.199v73.267a8.53 8.53 0 008.533 8.533 8.536 8.536 0 008.533-8.533V179.2h375.467v68.267a8.53 8.53 0 008.533 8.533 8.536 8.536 0 008.533-8.533V174.2l14.566-14.566a8.546 8.546 0 002.5-6.033v-34.133a8.536 8.536 0 00-8.533-8.533H42.667a8.53 8.53 0 00-8.533 8.533V153.6c0 2.261.896 4.437 2.5 6.033L51.2 174.199zm0-46.199h409.6v22.067l-12.066 12.066H63.266L51.2 150.067V128zm298.667 290.133h68.267a8.536 8.536 0 008.533-8.533v-85.333a8.536 8.536 0 00-8.533-8.533h-68.267a8.53 8.53 0 00-8.533 8.533V409.6a8.53 8.53 0 008.533 8.533zM358.4 332.8h51.2v68.267h-51.2V332.8z"/><path d="M503.467 452.267H460.8V281.6h8.533c4.71 0 8.533-3.823 8.533-8.533s-3.823-8.533-8.533-8.533H323.669C319.445 230.912 290.748 204.8 256 204.8c-34.756 0-63.454 26.112-67.678 59.733H42.667c-4.719 0-8.533 3.823-8.533 8.533s3.814 8.533 8.533 8.533H51.2v170.667H8.533C3.814 452.267 0 456.09 0 460.8s3.814 8.533 8.533 8.533h494.933c4.71 0 8.533-3.823 8.533-8.533s-3.822-8.533-8.532-8.533zm-315.734 0H68.267V281.6h119.467v170.667zm119.467 0H204.8V281.6h8.533c4.71 0 8.533-3.823 8.533-8.533s-3.823-8.533-8.533-8.533h-7.765c4.079-24.175 25.114-42.667 50.432-42.667s46.345 18.492 50.432 42.667h-7.765c-4.719 0-8.533 3.823-8.533 8.533s3.814 8.533 8.533 8.533h8.533v170.667zm136.533 0H324.267V281.6h119.467v170.667z"/><path d="M93.867 196.267a8.53 8.53 0 00-8.533 8.533v34.133a8.53 8.53 0 008.533 8.533h68.267a8.536 8.536 0 008.533-8.533V204.8a8.536 8.536 0 00-8.533-8.533H93.867zM153.6 230.4h-51.2v-17.067h51.2V230.4zM93.867 418.133h68.267a8.536 8.536 0 008.533-8.533v-85.333a8.536 8.536 0 00-8.533-8.533H93.867a8.53 8.53 0 00-8.533 8.533V409.6a8.53 8.53 0 008.533 8.533zM102.4 332.8h51.2v68.267h-51.2V332.8z"/></g></svg>