<svg xmlns="http://www.w3.org/2000/svg" width="512" height="512"><g fill="#FFF"><path d="M486.4 412.16c-50.93-27.008-89.996-42.152-124.772-47.958l3.599-4.948c1.707-1.707 2.56-4.267 1.707-6.827l-8.067-32.267c20.803-29.854 32.748-67.112 31.96-102.56v-50.76a42.708 42.708 0 001.707-1.293c11.093-9.387 17.067-23.04 17.067-36.693 0-64-52.053-116.053-115.2-116.053h-75.947c-64 0-116.053 52.053-116.907 115.2 0 14.507 5.973 27.307 17.067 36.693.279.215.57.415.853.624V217.6c0 35.558 12.446 72.939 33.597 102.839l-7.997 31.987c0 1.707 0 4.267 1.707 6.827l3.599 4.948c-34.776 5.807-73.843 20.95-124.772 47.958C9.387 419.84 0 436.053 0 453.973v36.693c0 5.12 3.413 8.533 8.533 8.533h494.933c5.12 0 8.533-3.413 8.533-8.533v-36.693c.001-17.066-10.239-33.28-25.599-41.813zm-140.8-75.093l3.413 15.36-8.717 11.969a7.615 7.615 0 00-1.523 1.684l-46.933 64.853-23.009-51.982c24.824-2.986 47.238-14.489 65.882-31.265a152.38 152.38 0 0010.887-10.619zm35.84-185.174c-.224.196-.458.378-.687.567-.959.223-1.89.582-2.726 1.14-3.692 2.769-7.634 4.53-11.689 5.303-3.216.493-6.488.449-9.644-.183-61.203-11.621-123.109-12.69-182.526-3.21a548.516 548.516 0 00-19.714 3.21 34.752 34.752 0 01-3.151.202c-6.86-.123-13.508-2.029-19.036-6.175-5.12-3.413-8.533-8.533-10.24-13.653l36.693-6.827c64-11.947 129.707-11.947 195.413 0l36.407 6.773c-1.889 4.831-5.036 9.297-9.1 12.853zM217.6 29.867h75.947c52.343 0 95.272 40.762 98.752 92.233l-35.605-6.046c-67.413-11.947-135.68-11.947-201.387 0l-35.605 6.046c3.477-51.471 46.373-92.233 97.898-92.233zM136.533 174.08c6.827 1.707 14.507 2.56 22.187.853 31.861-5.947 64.144-8.932 96.64-8.958 32.5.026 65.21 3.01 97.92 8.958 2.331.583 4.261.764 6.068.823 5.372.407 10.986-.393 16.118-1.676v43.52c0 37.209-12.764 70.274-31.929 95.407l-.498.166-2.56 2.56c-4.293 5.724-8.824 10.943-13.558 15.649-21.188 19.74-46.685 31.284-70.921 31.284h-.001c-.887 0-1.772-.018-2.657-.046-14.418-.496-29.207-5.012-43.208-12.837-13.895-7.982-26.966-19.49-38.614-34.051l-2.56-2.56-.498-.166c-19.164-25.134-31.929-58.199-31.929-95.407V174.08zm106.636 204.871l-23.009 51.982-46.933-64.853a14.853 14.853 0 00-.884-.806l-9.356-12.848 3.413-15.36a155.605 155.605 0 003.506 3.646c20.077 20.537 45.129 34.856 73.263 38.239zm251.764 103.182H17.067v-28.16c0-11.093 5.973-21.333 16.213-26.453 54.393-28.896 93.548-43.399 128.428-47.731l53.332 73.331c1.34 2.011 3.215 2.959 5.608 3.277.404.08.811.136 1.218.136 0 0 .853 0 .853.853 2.56 0 5.973-2.56 6.827-5.12l26.501-59.628 11.291 24.767 15.115 34.008c.853 2.56 3.413 5.12 6.827 5.12h.853c2.56 0 5.12-1.707 6.827-3.413l53.883-74.09c34.757 5.245 74.615 19.737 127.877 47.636 10.24 5.973 16.213 16.213 16.213 27.307v28.16z"/><path d="M238.933 98.133h34.133c5.12 0 8.533-3.413 8.533-8.533V46.933c0-5.12-3.413-8.533-8.533-8.533h-34.133c-5.12 0-8.533 3.413-8.533 8.533V89.6c0 5.12 3.413 8.533 8.533 8.533zm8.534-42.666h17.067v25.6h-17.067v-25.6z"/></g></svg>