<svg xmlns="http://www.w3.org/2000/svg" viewBox="0 0 64 64" width="512" height="512"><path d="M32 62a29.736 29.736 0 01-22-9.6V55a4 4 0 01-8 0V38a1 1 0 011-1h17a4 4 0 010 8h-3.189a20.121 20.121 0 0020.447 6.333 19.658 19.658 0 0014.483-16.056 5.02 5.02 0 014.94-4.3h.127a4.91 4.91 0 014.836 5.661A29.826 29.826 0 0132 62zM9 48.66a1 1 0 01.793.392 28 28 0 0049.874-12.721 2.909 2.909 0 00-2.87-3.354h-.116a3.032 3.032 0 00-2.966 2.616A21.653 21.653 0 0137.75 53.271a22.064 22.064 0 01-23.792-8.7A1 1 0 0114.78 43H20a2 2 0 000-4H4v16a2 2 0 004 0v-5.34a1 1 0 011-1zM7.325 33a5 5 0 01-4.945-5.786A30.006 30.006 0 0154 11.6V9a4 4 0 018 0v17a1 1 0 01-1 1H44a4 4 0 010-8h3.188a19.994 19.994 0 00-34.923 9.735A5.022 5.022 0 017.325 33zM32 4A27.862 27.862 0 004.354 27.53 3.006 3.006 0 007.325 31a3.029 3.029 0 002.966-2.588 21.993 21.993 0 0139.751-8.983A1 1 0 0149.22 21H44a2 2 0 000 4h16V9a2 2 0 00-4 0v5.34a1 1 0 01-1.793.608A27.78 27.78 0 0032 4z" data-name="arrow-refresh-transfer-user interface-interface" fill="#0fa8b4"/></svg>