<?xml version="1.0" encoding="iso-8859-1"?>
<!-- Generator: Adobe Illustrator 19.0.0, SVG Export Plug-In . SVG Version: 6.00 Build 0)  -->
<svg xmlns="http://www.w3.org/2000/svg" xmlns:xlink="http://www.w3.org/1999/xlink" version="1.1" id="Layer_1" x="0px" y="0px" viewBox="0 0 505.001 505.001" style="enable-background:new 0 0 505.001 505.001;" xml:space="preserve" width="512px" height="512px">
<g>
	<path d="M156.854,104.905c4.142,0,7.5-3.358,7.5-7.5v-9.857c0-4.142-3.358-7.5-7.5-7.5s-7.5,3.358-7.5,7.5v9.857   C149.354,101.547,152.712,104.905,156.854,104.905z" fill="#0fa8b4"/>
	<path d="M193.67,166.769c-3.083-8.835-5.641-12.983-5.911-13.408c-1.376-2.167-3.765-3.48-6.332-3.48h-20.52   c-2.465,0-4.773,1.212-6.174,3.241l-7.629,11.06c-1.322,1.917-3.417,3.018-5.747,3.018c-2.127,0-4.051-0.926-5.378-2.545   c3.272-0.807,5.702-3.753,5.702-7.274v-8.912c13.125-0.113,25.185-4.75,34.703-12.427h33.11c4.142,0,7.5-3.358,7.5-7.5V75.79   c0-41.791-34.004-75.79-75.81-75.79C99.838,0,66.142,33.284,65.428,74.462H44.979v-4.229c0-4.142-3.358-7.5-7.5-7.5   s-7.5,3.358-7.5,7.5v4.229H9.078c-4.142,0-7.5,3.358-7.5,7.5v75.417c0,20.121,3.821,36.841,11.357,49.697   c7.091,12.095,17.069,19.996,28.857,22.848c3.115,0.754,6.252,1.12,9.377,1.12c9.682,0,19.229-3.521,27.497-9.921   c-0.762,9.245-1.228,19.566-1.264,31.035c-1.71,4.527-7.211,19.863-12.082,41.92c-0.893,4.045,1.662,8.048,5.707,8.941   c4.042,0.891,8.047-1.661,8.941-5.707c3.857-17.469,8.188-30.668,10.406-36.932c39.279-5.367,62.677-5.366,101.955-0.001   c5.016,14.232,20.881,64.287,17.85,120.161H72.532c-0.962-17.661-0.134-36.265,2.471-55.412c0.558-4.104-2.316-7.884-6.42-8.443   c-4.105-0.552-7.884,2.317-8.443,6.42c-3.092,22.729-3.794,44.782-2.087,65.548c0.32,3.891,3.571,6.886,7.475,6.886h25.832   c0.465,18.366,2.046,66.27,6.353,94.461H95.07c-4.142,0-7.5,3.358-7.5,7.5s3.358,7.5,7.5,7.5h30.186   c0.006,0,0.011-0.002,0.016-0.002c4.034-0.01,7.339-3.209,7.477-7.242c0.014-0.425,1.426-39.662,8.605-93.701   c7.172,53.993,8.59,93.276,8.605,93.702c0.139,4.036,3.449,7.238,7.487,7.242c0.004,0,0.008,0.001,0.012,0.001h30.185   c4.142,0,7.5-3.358,7.5-7.5s-3.358-7.5-7.5-7.5h-2.645c4.313-28.193,5.896-76.095,6.361-94.461h25.827   c3.904,0,7.155-2.995,7.475-6.886c3.107-37.802-2.442-73.208-7.645-96.253c-2.942-13.034-6.09-23.594-8.213-30.158   c-1.656-5.12-2.732-8.195-3.492-10.117c-0.072-22.621-1.823-40.769-4.196-55.022c5.02,8.009,10.143,18.408,14.693,31.081   c10.942,30.475,15.063,64.382,11.601,95.475c-0.458,4.117,2.508,7.825,6.625,8.284c0.282,0.031,0.562,0.046,0.839,0.046   c3.771,0,7.018-2.836,7.445-6.671c3.709-33.321-0.692-69.617-12.392-102.203C220.261,196.199,206.568,175.017,193.67,166.769z    M127.372,395.54c-6.126,44.246-8.488,79.806-9.273,94.46h-5.205c-4.354-26.177-6.026-75.553-6.524-94.46H127.372z M169.815,490   h-5.207c-0.785-14.655-3.147-50.215-9.273-94.46h21.012C175.849,414.447,174.176,463.824,169.815,490z M134.182,74.462h-34.148   v-2.752l82.32,0.009V92.31c0,22.538-18.201,40.894-40.672,41.157V81.962C141.682,77.82,138.324,74.462,134.182,74.462z M141.194,15   c33.525,0,60.8,27.27,60.8,60.79v45.25h-12.567c5.028-8.412,7.927-18.237,7.927-28.73V64.22c0-4.142-3.357-7.5-7.499-7.5   l-97.32-0.01c0,0,0,0-0.001,0c-1.989,0-3.896,0.79-5.303,2.197s-2.197,3.314-2.197,5.303v10.252h-4.606   C81.139,41.555,108.11,15,141.194,15z M16.578,89.462h110.104v60.417H16.578V89.462z M82.19,193.567   c-8.526,16.586-22.999,25.133-36.87,21.778c-16.284-3.94-26.894-23.005-28.517-50.465h72.919   c-2.379,6.467-5.17,15.847-7.495,28.623C82.216,193.525,82.202,193.545,82.19,193.567z M92.489,244.968   c0.959-47.175,9.644-71.637,13.407-80.087h11.974l5.394,7.819c4.104,5.948,10.868,9.5,18.094,9.5s13.991-3.552,18.094-9.5   l5.393-7.819h12.017c3.789,8.35,12.422,32.461,13.366,80.088C153.562,240.193,129.154,240.193,92.489,244.968z" fill="#0fa8b4"/>
	<path d="M345.773,72.47c-4.142,0-7.5,3.358-7.5,7.5v9.857c0,4.142,3.358,7.5,7.5,7.5s7.5-3.358,7.5-7.5V79.97   C353.273,75.828,349.916,72.47,345.773,72.47z" fill="#0fa8b4"/>
	<path d="M495.923,74.462h-20.901v-4.229c0-4.142-3.358-7.5-7.5-7.5s-7.5,3.358-7.5,7.5v4.229h-13.708   c-1.859-11.606-11.939-20.502-24.06-20.502c-0.115,0-0.23,0.001-0.345,0.002c-2.685-12.356-9.088-23.634-18.498-32.365   C391.877,10.894,376.855,5,361.114,5c-15.74,0-30.762,5.892-42.299,16.591c-9.409,8.725-15.813,20.005-18.497,32.372   c-0.118-0.002-0.235-0.002-0.354-0.002c-13.432,0-24.36,10.932-24.36,24.37c0,13.432,10.928,24.36,24.36,24.36   c0.375,0,0.748-0.009,1.121-0.026c7.278,26.613,31.794,45.816,60.029,45.816c0.737,0,1.472-0.023,2.206-0.049v8.948   c0,2.823,1.562,5.279,3.866,6.559l-5.913,8.574L347.9,153.122c-1.4-2.03-3.709-3.242-6.174-3.242h-20.525   c-2.8,0-5.366,1.559-6.656,4.044c-0.311,0.599-2.576,5.027-5.677,12.651c-37.694,18.747-74.845,93.104-51.336,164.112   c1.043,3.15,3.973,5.145,7.119,5.145c0.781,0,1.576-0.123,2.358-0.382c3.932-1.302,6.064-5.545,4.763-9.478   c-18.249-55.12,3.95-108.734,28.211-133.922c-6.481,21.834-12.671,51.778-12.671,86.524c0,0.358,0.024,36.365,2.085,81.221   c2.523,54.922,6.842,98.648,12.851,130.206h-7.436c-4.142,0-7.5,3.358-7.5,7.5s3.358,7.5,7.5,7.5h35.186   c4.042,0,7.356-3.203,7.496-7.242c0.029-0.83,3.026-82.271,22.031-172.931h3.498c19.006,90.66,22.003,172.101,22.032,172.931   c0.139,4.039,3.454,7.242,7.496,7.242h35.186c4.142,0,7.5-3.358,7.5-7.5s-3.358-7.5-7.5-7.5h-7.436   c6.009-31.558,10.328-75.284,12.851-130.206c2.061-44.856,2.085-80.863,2.085-81.221c0-20.029-2.099-38.524-5.113-54.775   c7.336,4.698,15.474,7.244,23.71,7.244c3.125,0,6.264-0.366,9.377-1.12c11.788-2.852,21.766-10.753,28.857-22.848   c7.536-12.855,11.357-29.576,11.357-49.697V81.962C503.423,77.82,500.065,74.462,495.923,74.462z M329.014,32.59   c8.755-8.119,20.155-12.59,32.1-12.59c21.931,0,40.821,15.361,45.878,36.106c-38.96,2.374-57.007-18.08-57.772-18.972   c-1.583-1.895-3.997-2.889-6.454-2.66c-2.458,0.229-4.646,1.654-5.85,3.809c-5.08,9.09-11.829,14.278-21.266,16.177   C317.979,46.137,322.563,38.572,329.014,32.59z M361.114,133.48c-23.513,0-43.627-17.54-46.788-40.8   c-0.318-2.345-1.725-4.401-3.794-5.549c-2.07-1.147-4.559-1.25-6.716-0.28c-1.236,0.557-2.532,0.839-3.851,0.839   c-5.161,0-9.36-4.199-9.36-9.36c0-5.167,4.199-9.37,9.36-9.37c1.274,0,2.504,0.25,3.655,0.743c0.923,0.395,1.9,0.585,2.877,0.595   c0.026,0.001,0.05,0.009,0.077,0.009c16.537,0,29.132-5.559,38.249-16.941c9.251,7.284,27.625,17.938,55.962,17.938   c4.972,0,10.251-0.328,15.841-1.06c0.019-0.002,0.036-0.01,0.055-0.014c0.656-0.091,1.306-0.26,1.929-0.527   c1.151-0.493,2.378-0.744,3.646-0.744c3.787,0,7.048,2.262,8.525,5.502H370.82c-4.142,0-7.5,3.358-7.5,7.5v51.466   C362.587,133.461,361.851,133.48,361.114,133.48z M325.947,164.88h11.84l17.311,25.102c1.4,2.03,3.708,3.242,6.174,3.242   s4.774-1.212,6.174-3.242l17.311-25.102h11.852c0.992,2.187,2.308,5.219,3.806,9.001v0c6.951,17.556,18.324,52.545,19.683,96.115   c-39.075-4.834-78.566-4.835-117.641-0.001C304.107,217.642,320.319,177.368,325.947,164.88z M399.7,490.001   c-1.227-22.711-6.266-95.677-23.278-174.26c-0.747-3.451-3.799-5.913-7.33-5.913h-15.638c-3.531,0-6.583,2.462-7.33,5.913   c-17.013,78.583-22.051,151.548-23.278,174.26h-5.317c-13.126-66.233-14.931-176.917-15.178-204.866   c39.135-5.009,78.712-5.009,117.845,0c-0.246,27.947-2.049,138.62-15.178,204.866H399.7z M459.681,215.345   c-13.714,3.316-28.015-5.007-36.576-21.228c-3.051-10.562-6.182-19.29-8.743-25.759c-0.489-1.236-0.959-2.392-1.409-3.479h27.306   c4.142,0,7.5-3.358,7.5-7.5s-3.358-7.5-7.5-7.5H378.32V89.462h110.104v60.417H470.26c-4.142,0-7.5,3.358-7.5,7.5s3.358,7.5,7.5,7.5   h17.938C486.575,192.34,475.965,211.405,459.681,215.345z" fill="#0fa8b4"/>
	<path d="M433.372,94.632c-13.806,0-25.039,11.232-25.039,25.039s11.232,25.039,25.039,25.039s25.039-11.232,25.039-25.039   S447.178,94.632,433.372,94.632z M433.372,129.71c-5.535,0-10.039-4.503-10.039-10.039s4.503-10.039,10.039-10.039   s10.039,4.503,10.039,10.039S438.907,129.71,433.372,129.71z" fill="#0fa8b4"/>
	<path d="M464.604,143.13c6.457,2.664,12.831-4.535,9.395-10.619c-3.264-5.78-12.167-4.522-13.793,1.871   C459.298,137.954,461.231,141.705,464.604,143.13z" fill="#0fa8b4"/>
	<path d="M71.63,94.632c-13.806,0-25.039,11.232-25.039,25.039S57.824,144.71,71.63,144.71s25.039-11.232,25.039-25.039   S85.436,94.632,71.63,94.632z M71.63,129.71c-5.535,0-10.039-4.503-10.039-10.039s4.503-10.039,10.039-10.039   s10.039,4.503,10.039,10.039S77.165,129.71,71.63,129.71z" fill="#0fa8b4"/>
	<path d="M44.454,133.33c-2.563-6.071-11.493-6.034-13.913,0.15c-1.117,2.855-0.328,6.22,1.947,8.281   c2.337,2.118,5.837,2.523,8.607,1.035C44.476,140.979,45.835,136.857,44.454,133.33z" fill="#0fa8b4"/>
</g>















</svg>
