<svg version="1.1" id="Шар_1" xmlns="http://www.w3.org/2000/svg" x="0" y="0" viewBox="0 0 629 248" xml:space="preserve"><style>.st0{fill:#00b8cd}</style><path class="st0" d="M299.5 125.5c-6.5 2-27 17-27 17S289 122 291 116s6-51 6-51 4 46 6.5 48.5 76 7.5 78 5 4-23 4-23 1 20.5 4 23 45 5 45 5-128.5 0-135 2zm-100-104S198 17.7 195 17C172.5 12 55 31 55 31S81.5 0 214 0c0 0-8.7 34.6-14 70-5.2 34.7-9 75-13.5 80.5s-31.5 9-46.5 11.5-60.5 5.5-81 2.5-29-1.5-35.5-10S35 70 35 70s-9.5 67.5 4.5 79.5 110.5 1 110.5 1c30-5.5 26.5-5 29.5-15S189 65 198.5 29c-25.3-4-26 11.2-27.5 42.1v.9c-3.5 10.5-17 15.5-22 5 6.5-50.5 19.5-56.5 50.5-55.5z"/><path class="st0" d="M458 103C401.5 74.5 240.5-1 227.5 5.5S205 100 201 144.5C216 98 224 32 238 25.5S368 75 458 103zM16 57c4.4-3.2 16-5 21.5-3-4 2-8.5 3-11.5 6s-7.5 10.5-8 16-4 18.5-5.5 20.5C9.1 101 2.3 98 .5 95-1 92.5 1.5 84 5 74.5S10.5 61 16 57zm157.5 181.5c-11.5 2.5-108.5-1-119-2.5S34 229.5 27 213.5 23.5 166 23.5 166s14 28.5 25.5 32.5 78.5 5.5 92-.5 46-29.5 46-29.5c.3 11.2-1.8 33.8-5 37s-19.7 6-23 6l-124.5-2c0 7.5 13 11 20 11l132.5 2s-2 13.5-13.5 16zm163.3-76.3H321V205h-12.7v-42.8h-15.5v-9.8h44v9.8zm26.1 14.7l-4-.3c-3.8 0-6.3 1.2-7.4 3.6V205h-12.2v-39.1h11.4l.4 5c2-3.8 4.9-5.7 8.6-5.7 1.3 0 2.4.1 3.4.4l-.2 11.3zm25.3 28.1c-.4-.8-.8-2-1.2-3.5-2.2 2.8-5.4 4.2-9.4 4.2-3.7 0-6.8-1.1-9.4-3.3-2.6-2.2-3.9-5-3.9-8.4 0-4.2 1.6-7.4 4.7-9.6 3.1-2.2 7.7-3.3 13.7-3.3h3.8V179c0-3.6-1.6-5.4-4.7-5.4-2.9 0-4.3 1.4-4.3 4.3h-12.2c0-3.8 1.6-6.9 4.8-9.2 3.2-2.4 7.3-3.5 12.3-3.5 5 0 8.9 1.2 11.8 3.6 2.9 2.4 4.4 5.8 4.4 10v17.3c0 3.6.6 6.3 1.7 8.2v.6h-12.1zm-7.6-7.9c1.5 0 2.8-.3 3.8-1 1-.6 1.7-1.4 2.2-2.2v-6.3H383c-4.2 0-6.4 1.9-6.4 5.7 0 1.1.4 2 1.1 2.7.8.7 1.7 1.1 2.9 1.1zm36.1-31.2l.4 4.6c2.7-3.5 6.4-5.3 11.2-5.3 4.1 0 7.1 1.2 9.1 3.6 2 2.4 3.1 6.1 3.1 11V205h-12.2v-24.7c0-2-.4-3.4-1.2-4.3-.8-.9-2.2-1.4-4.3-1.4-2.4 0-4.2.9-5.3 2.8V205h-12.2v-39.1h11.4zm51 28.1c0-1-.5-1.9-1.6-2.5-1.1-.6-3.1-1.3-6.2-2-3-.7-5.5-1.6-7.5-2.6-2-1.1-3.5-2.4-4.5-4s-1.6-3.4-1.6-5.4c0-3.6 1.5-6.5 4.4-8.9 3-2.3 6.8-3.5 11.6-3.5 5.2 0 9.3 1.2 12.4 3.5 3.1 2.3 4.7 5.4 4.7 9.2h-12.2c0-3.1-1.6-4.7-5-4.7-1.3 0-2.3.4-3.2 1.1-.9.7-1.3 1.6-1.3 2.6 0 1.1.5 2 1.6 2.6 1.1.7 2.7 1.2 5.1 1.7 2.3.4 4.4 1 6.1 1.6 5.9 2 8.8 5.6 8.8 10.9 0 3.6-1.6 6.5-4.8 8.7-3.2 2.2-7.3 3.4-12.3 3.4-3.3 0-6.3-.6-9-1.8-2.6-1.2-4.7-2.8-6.1-4.9-1.5-2.1-2.2-4.3-2.2-6.5h11.4c0 1.8.6 3.1 1.8 4 1.2.8 2.6 1.2 4.4 1.2 1.7 0 2.9-.3 3.7-1 1.1-.7 1.5-1.6 1.5-2.7z"/><path d="M248.2 152.4v34.4c0 3.9-.8 7.3-2.5 10.2-1.7 2.8-4 5-7.2 6.5-3.1 1.5-6.8 2.2-11 2.2-6.4 0-11.5-1.7-15.1-5-3.7-3.3-5.6-7.9-5.6-13.7v-34.7h12.8v34.9c.1 5.8 2.8 8.6 8 8.6 2.6 0 4.6-.7 6-2.2 1.3-1.4 2-3.8 2-7v-34.4h12.6zm29.4 52.6c-.4-.8-.8-2-1.2-3.5-2.2 2.8-5.4 4.2-9.4 4.2-3.7 0-6.8-1.1-9.4-3.3-2.6-2.2-3.9-5-3.9-8.4 0-4.2 1.6-7.4 4.7-9.6 3.1-2.2 7.7-3.3 13.7-3.3h3.8V179c0-3.6-1.6-5.4-4.7-5.4-2.9 0-4.3 1.4-4.3 4.3h-12.2c0-3.8 1.6-6.9 4.8-9.2 3.2-2.4 7.3-3.5 12.3-3.5 5 0 8.9 1.2 11.8 3.6 2.9 2.4 4.4 5.8 4.4 10v17.3c0 3.6.6 6.3 1.7 8.2v.6h-12.1zm-7.6-7.9c1.5 0 2.8-.3 3.8-1 1-.6 1.7-1.4 2.2-2.2v-6.3h-3.5c-4.2 0-6.4 1.9-6.4 5.7 0 1.1.4 2 1.1 2.7.7.7 1.7 1.1 2.8 1.1zm-52.1 38.3h-8.7l-2 5.4h-2.8l8-20.9h2.4l8 20.9H220l-2.1-5.4zm-7.9-2.3h7.1l-3.6-9.8-3.5 9.8zm15.4 7.7v-15.5h6c2.1 0 3.6.4 4.7 1.1 1.1.7 1.7 1.8 1.7 3.2 0 .7-.2 1.4-.6 1.9-.4.6-1.1 1-1.9 1.3.9.2 1.7.6 2.2 1.3.6.6.9 1.4.9 2.3 0 1.4-.5 2.5-1.6 3.3-1 .8-2.5 1.1-4.4 1.1h-7zm2.6-6.8v4.7h4.4c1.1 0 1.9-.2 2.5-.6.6-.4.8-1 .8-1.7 0-1.5-1.1-2.3-3.4-2.3H228zm0-2.1h3.4c2.5 0 3.7-.7 3.7-2.2 0-1.5-1.2-2.2-3.5-2.2H228v4.4zm25.3-4.4h-5.2v13.4h-2.7v-13.4h-5.1v-2.1h13v2.1zm1.2 5.4c0-1.5.3-2.9.9-4.1.6-1.2 1.4-2.1 2.5-2.8 1.1-.7 2.3-1 3.7-1 2.1 0 3.8.7 5.1 2.2 1.3 1.5 2 3.4 2 5.8v.2c0 1.5-.3 2.9-.9 4.1-.6 1.2-1.4 2.1-2.5 2.8-1.1.7-2.3 1-3.7 1-2.1 0-3.8-.7-5.1-2.2-1.3-1.5-1.9-3.4-1.9-5.8v-.2zm2.7.4c0 1.7.4 3.1 1.2 4.1.8 1 1.9 1.6 3.2 1.6 1.3 0 2.4-.5 3.2-1.6.8-1.1 1.2-2.5 1.2-4.4 0-1.7-.4-3.1-1.2-4.1-.8-1.1-1.9-1.6-3.2-1.6-1.3 0-2.4.5-3.2 1.6-.8.9-1.2 2.4-1.2 4.4zm21.6-7.1c1.9 0 3.5.7 4.7 2 1.2 1.3 1.8 3 1.8 5.1v.2c0 1.5-.3 2.8-.8 3.9-.6 1.1-1.4 2-2.4 2.7-1.1.6-2.3.9-3.6.9-2.1 0-3.8-.7-5-2.1-1.3-1.4-1.9-3.3-1.9-5.6V232c0-3.3.6-5.8 1.8-7.8 1.2-1.9 3-3.1 5.4-3.5 1.3-.2 2.2-.5 2.7-.9.5-.3.7-.8.7-1.4h2.2c0 1.2-.3 2.1-.8 2.8-.5.7-1.4 1.1-2.6 1.4l-2 .4c-1.6.4-2.8 1-3.6 1.9-.8.9-1.3 2.1-1.5 3.5 1.2-1.4 2.9-2.2 4.9-2.2zm-.5 2.2c-1.3 0-2.3.4-3.1 1.3-.8.9-1.1 2.1-1.1 3.6v.2c0 1.7.4 3 1.1 4 .8 1 1.8 1.4 3.1 1.4s2.4-.5 3.1-1.5c.8-1 1.1-2.4 1.1-4.3 0-1.5-.4-2.6-1.2-3.5-.7-.8-1.7-1.2-3-1.2zm15 8.6l3.6-11.6h2.8l-6.2 17.9c-1 2.6-2.5 3.9-4.6 3.9h-.5l-1-.2v-2.1l.7.1c.9 0 1.6-.2 2.1-.5.5-.4.9-1 1.2-2l.6-1.6-5.5-15.3h2.9l3.9 11.4zm14.8 2c.9 0 1.8-.3 2.5-.9.7-.6 1.1-1.3 1.2-2.1h2.5c0 .9-.4 1.7-.9 2.5-.6.8-1.3 1.4-2.3 1.9-.9.5-1.9.7-3 .7-2.1 0-3.8-.7-5-2.1-1.2-1.4-1.9-3.3-1.9-5.8v-.4c0-1.5.3-2.9.8-4 .6-1.2 1.3-2.1 2.4-2.7 1-.6 2.3-1 3.7-1 1.7 0 3.2.5 4.3 1.6 1.2 1 1.8 2.4 1.8 4.1h-2.5c-.1-1-.5-1.8-1.1-2.5-.7-.7-1.5-1-2.5-1-1.3 0-2.4.5-3.1 1.5-.7 1-1.1 2.4-1.1 4.2v.5c0 1.8.4 3.2 1.1 4.1.7.9 1.8 1.4 3.1 1.4zm12.1-8.3h4c1.8 0 3.1.5 4.2 1.4 1 .9 1.5 2.1 1.5 3.7 0 1.5-.5 2.8-1.6 3.7-1.1.9-2.5 1.4-4.2 1.4h-6.6v-15.5h2.7v5.3zm15.2 10.1h-2.7v-15.5h2.7v15.5zm-15.2-8v5.8h3.9c1 0 1.8-.3 2.3-.8.5-.5.8-1.2.8-2.1 0-.9-.3-1.6-.8-2.1-.5-.6-1.3-.8-2.2-.9h-4zm39.8 8h-2.7v-6.6h-7.1v6.6h-2.7v-15.5h2.7v6.7h7.1v-6.7h2.7v15.5zm13.8 0c-.2-.3-.3-.8-.4-1.6-1.2 1.3-2.7 1.9-4.4 1.9-1.5 0-2.8-.4-3.8-1.3s-1.5-2-1.5-3.3c0-1.6.6-2.9 1.8-3.8 1.2-.9 3-1.3 5.2-1.3h2.6v-1.2c0-.9-.3-1.7-.8-2.2-.6-.6-1.4-.8-2.5-.8-.9 0-1.7.2-2.4.7-.6.5-1 1.1-1 1.7h-2.7c0-.8.3-1.5.8-2.2.6-.7 1.3-1.3 2.2-1.7.9-.4 2-.6 3.1-.6 1.8 0 3.2.4 4.2 1.3s1.5 2.1 1.6 3.7v7.1c0 1.4.2 2.6.5 3.4v.2h-2.5zm-4.4-2c.8 0 1.6-.2 2.4-.6.7-.4 1.3-1 1.6-1.7v-3.2h-2.1c-3.2 0-4.9.9-4.9 2.9 0 .8.3 1.5.8 1.9.7.5 1.4.7 2.2.7zm18.4 2v-15.5h6c2.1 0 3.6.4 4.7 1.1 1.1.7 1.7 1.8 1.7 3.2 0 .7-.2 1.4-.6 1.9-.4.6-1.1 1-1.9 1.3.9.2 1.7.6 2.2 1.3.6.6.9 1.4.9 2.3 0 1.4-.5 2.5-1.6 3.3-1 .8-2.5 1.1-4.4 1.1h-7zm2.6-6.8v4.7h4.4c1.1 0 1.9-.2 2.5-.6.6-.4.8-1 .8-1.7 0-1.5-1.1-2.3-3.4-2.3h-4.3zm0-2.1h3.4c2.5 0 3.7-.7 3.7-2.2 0-1.5-1.2-2.2-3.5-2.2h-3.6v4.4zm20.1 7.1c.9 0 1.8-.3 2.5-.9s1.1-1.3 1.2-2.1h2.5c0 .9-.4 1.7-.9 2.5-.6.8-1.3 1.4-2.3 1.9-.9.5-1.9.7-3 .7-2.1 0-3.8-.7-5-2.1-1.2-1.4-1.9-3.3-1.9-5.8v-.4c0-1.5.3-2.9.8-4 .6-1.2 1.3-2.1 2.4-2.7 1-.6 2.3-1 3.7-1 1.7 0 3.2.5 4.3 1.6 1.2 1 1.8 2.4 1.8 4.1h-2.5c-.1-1-.5-1.8-1.1-2.5-.7-.7-1.5-1-2.5-1-1.3 0-2.4.5-3.1 1.5-.7 1-1.1 2.4-1.1 4.2v.5c0 1.8.4 3.2 1.1 4.1.7.9 1.7 1.4 3.1 1.4zm15.6 2.1c-2.1 0-3.8-.7-5.1-2.1-1.3-1.4-2-3.2-2-5.5v-.5c0-1.5.3-2.9.9-4.1.6-1.2 1.4-2.2 2.5-2.8 1.1-.7 2.2-1 3.4-1 2 0 3.6.7 4.7 2s1.7 3.2 1.7 5.7v1.1h-10.5c0 1.5.5 2.8 1.3 3.7.9.9 1.9 1.4 3.3 1.4.9 0 1.7-.2 2.4-.6.6-.4 1.2-.9 1.7-1.5l1.6 1.3c-1.4 1.9-3.3 2.9-5.9 2.9zm-.4-13.9c-1.1 0-2 .4-2.7 1.2-.7.8-1.2 1.9-1.3 3.3h7.8v-.2c-.1-1.3-.4-2.4-1.1-3.1-.7-.8-1.5-1.2-2.7-1.2zm23 11.8c.9 0 1.8-.3 2.5-.9s1.1-1.3 1.2-2.1h2.5c0 .9-.4 1.7-.9 2.5-.6.8-1.3 1.4-2.3 1.9-.9.5-1.9.7-3 .7-2.1 0-3.8-.7-5-2.1-1.2-1.4-1.9-3.3-1.9-5.8v-.4c0-1.5.3-2.9.8-4 .6-1.2 1.3-2.1 2.4-2.7 1-.6 2.3-1 3.7-1 1.7 0 3.2.5 4.3 1.6 1.2 1 1.8 2.4 1.8 4.1h-2.5c-.1-1-.5-1.8-1.1-2.5-.7-.7-1.5-1-2.5-1-1.3 0-2.4.5-3.1 1.5-.7 1-1.1 2.4-1.1 4.2v.5c0 1.8.4 3.2 1.1 4.1.7.9 1.7 1.4 3.1 1.4zm21.9-13.7v15.5h-2.7v-13.3h-5.3l-.3 5.8c-.2 2.7-.6 4.6-1.3 5.7-.7 1.1-1.9 1.7-3.4 1.8h-1.1v-2.3l.8-.1c.9-.1 1.5-.6 1.8-1.5.4-.9.6-2.6.7-5l.3-6.6h10.5zm9.3 11.7l3.6-11.6h2.8l-6.2 17.9c-1 2.6-2.5 3.9-4.6 3.9h-.5l-1-.2v-2.1l.7.1c.9 0 1.6-.2 2.1-.5.5-.4.9-1 1.2-2l.6-1.6-5.5-15.3h2.9l3.9 11.4zm20.5 3.8h-2.7v-5.6c-1.2.3-2.4.5-3.6.5-1.9 0-3.4-.5-4.4-1.5-1-1-1.5-2.4-1.5-4.2v-4.6h2.7v4.7c0 2.3 1.2 3.5 3.3 3.5 1.2 0 2.4-.2 3.6-.5v-7.7h2.7v15.4zm13.9 0c-.2-.3-.3-.8-.4-1.6-1.2 1.3-2.7 1.9-4.4 1.9-1.5 0-2.8-.4-3.8-1.3s-1.5-2-1.5-3.3c0-1.6.6-2.9 1.8-3.8 1.2-.9 3-1.3 5.2-1.3h2.6v-1.2c0-.9-.3-1.7-.8-2.2-.6-.6-1.4-.8-2.5-.8-.9 0-1.7.2-2.4.7-.6.5-1 1.1-1 1.7h-2.7c0-.8.3-1.5.8-2.2.6-.7 1.3-1.3 2.2-1.7.9-.4 2-.6 3.1-.6 1.8 0 3.2.4 4.2 1.3s1.5 2.1 1.6 3.7v7.1c0 1.4.2 2.6.5 3.4v.2h-2.5zm-4.4-2c.8 0 1.6-.2 2.4-.6.7-.4 1.3-1 1.6-1.7v-3.2h-2.1c-3.2 0-4.9.9-4.9 2.9 0 .8.3 1.5.8 1.9.6.5 1.3.7 2.2.7zm20.8-13.5h2.7v15.5h-2.7v-11.3l-7.2 11.3h-2.7v-15.5h2.7v11.3l7.2-11.3zm26.5 8.8h-1.9v6.7h-2.7v-6.7h-1.9l-4.3 6.7H543l5.5-8-5-7.5h3.2l4 6.4h1.8v-6.4h2.7v6.4h1.8l4-6.4h3.2l-5 7.5 5.5 8h-3.4l-4.1-6.7zm20.2-8.8h2.7v15.5h-2.7v-11.3l-7.2 11.3h-2.7v-15.5h2.7v11.3l7.2-11.3zm15.4 4.3c0-.7-.3-1.3-.8-1.7-.6-.4-1.3-.6-2.3-.6-.9 0-1.7.2-2.4.7-.6.5-.9 1.1-.9 1.7h-2.6c0-1.3.6-2.4 1.7-3.3 1.1-.9 2.5-1.3 4.2-1.3 1.8 0 3.2.4 4.2 1.2 1 .8 1.5 1.9 1.5 3.3 0 .7-.2 1.3-.6 1.9-.4.6-1 1-1.8 1.4 1.8.6 2.7 1.8 2.7 3.6 0 1.4-.5 2.6-1.6 3.4-1.1.8-2.6 1.2-4.4 1.2-1.8 0-3.3-.4-4.4-1.3-1.2-.9-1.7-2.1-1.7-3.6h2.6c0 .8.3 1.4 1 1.9s1.5.8 2.5.8 1.8-.2 2.5-.7c.6-.5.9-1.1.9-1.8 0-.9-.3-1.5-.8-1.9-.5-.4-1.3-.6-2.4-.6h-2.7v-2.2h2.9c1.8.1 2.7-.7 2.7-2.1zm19 11.2h-2.7v-6.6H602v6.6h-2.7v-15.5h2.7v6.7h7.1v-6.7h2.7v15.5zm14.3-15.5h2.7v15.5h-2.7v-11.3l-7.2 11.3h-2.7v-15.5h2.7v11.3l7.2-11.3z"/></svg>