<?xml version="1.0" encoding="utf-8"?>
<!-- Generator: Adobe Illustrator 25.3.1, SVG Export Plug-In . SVG Version: 6.00 Build 0)  -->
<svg version="1.1" id="Шар_1" xmlns="http://www.w3.org/2000/svg" xmlns:xlink="http://www.w3.org/1999/xlink" x="0px" y="0px"
	 viewBox="0 0 629 248" style="enable-background:new 0 0 629 248;" xml:space="preserve">
<style type="text/css">
	.st0{fill:#00B8CD;}
</style>
<g>
	<g>
		<g>
			<path class="st0" d="M299.5,125.5c-6.5,2-27,17-27,17S289,122,291,116s6-51,6-51s4,46,6.5,48.5s76,7.5,78,5s4-23,4-23
				s1,20.5,4,23s45,5,45,5S306,123.5,299.5,125.5z"/>
			<path class="st0" d="M199.5,21.5c0,0-1.5-3.8-4.5-4.5C172.5,12,55,31,55,31S81.5,0,214,0c0,0-8.7,34.6-14,70
				c-5.2,34.7-9,75-13.5,80.5s-31.5,9-46.5,11.5s-60.5,5.5-81,2.5s-29-1.5-35.5-10S35,70,35,70s-9.5,67.5,4.5,79.5s110.5,1,110.5,1
				c30-5.5,26.5-5,29.5-15S189,65,198.5,29c-25.3-4-26,11.2-27.5,42.1l0,0.9c-3.5,10.5-17,15.5-22,5
				C155.5,26.5,168.5,20.5,199.5,21.5z"/>
			<path class="st0" d="M458,103C401.5,74.5,240.5-1,227.5,5.5S205,100,201,144.5C216,98,224,32,238,25.5S368,75,458,103z"/>
			<path class="st0" d="M16,57c4.4-3.2,16-5,21.5-3c-4,2-8.5,3-11.5,6s-7.5,10.5-8,16s-4,18.5-5.5,20.5C9.1,101,2.3,98,0.5,95
				C-1,92.5,1.5,84,5,74.5S10.5,61,16,57z"/>
			<path class="st0" d="M173.5,238.5c-11.5,2.5-108.5-1-119-2.5S34,229.5,27,213.5c-7-16-3.5-47.5-3.5-47.5s14,28.5,25.5,32.5
				s78.5,5.5,92-0.5s46-29.5,46-29.5c0.3,11.2-1.8,33.8-5,37s-19.7,6-23,6l-124.5-2c0,7.5,13,11,20,11l132.5,2
				C187,222.5,185,236,173.5,238.5z"/>
		</g>
		<g>
			<g>
				<path class="st0" d="M336.8,162.2H321V205h-12.7v-42.8h-15.5v-9.8h44V162.2z"/>
				<path class="st0" d="M362.9,176.9l-4-0.3c-3.8,0-6.3,1.2-7.4,3.6V205h-12.2v-39.1h11.4l0.4,5c2-3.8,4.9-5.7,8.6-5.7
					c1.3,0,2.4,0.1,3.4,0.4L362.9,176.9z"/>
				<path class="st0" d="M388.2,205c-0.4-0.8-0.8-2-1.2-3.5c-2.2,2.8-5.4,4.2-9.4,4.2c-3.7,0-6.8-1.1-9.4-3.3
					c-2.6-2.2-3.9-5-3.9-8.4c0-4.2,1.6-7.4,4.7-9.6c3.1-2.2,7.7-3.3,13.7-3.3h3.8v-2.1c0-3.6-1.6-5.4-4.7-5.4
					c-2.9,0-4.3,1.4-4.3,4.3h-12.2c0-3.8,1.6-6.9,4.8-9.2c3.2-2.4,7.3-3.5,12.3-3.5c5,0,8.9,1.2,11.8,3.6c2.9,2.4,4.4,5.8,4.4,10
					v17.3c0,3.6,0.6,6.3,1.7,8.2v0.6H388.2z M380.6,197.1c1.5,0,2.8-0.3,3.8-1c1-0.6,1.7-1.4,2.2-2.2v-6.3H383
					c-4.2,0-6.4,1.9-6.4,5.7c0,1.1,0.4,2,1.1,2.7C378.5,196.7,379.4,197.1,380.6,197.1z"/>
				<path class="st0" d="M416.7,165.9l0.4,4.6c2.7-3.5,6.4-5.3,11.2-5.3c4.1,0,7.1,1.2,9.1,3.6c2,2.4,3.1,6.1,3.1,11V205h-12.2
					v-24.7c0-2-0.4-3.4-1.2-4.3c-0.8-0.9-2.2-1.4-4.3-1.4c-2.4,0-4.2,0.9-5.3,2.8V205h-12.2v-39.1H416.7z"/>
				<path class="st0" d="M467.7,194c0-1-0.5-1.9-1.6-2.5c-1.1-0.6-3.1-1.3-6.2-2c-3-0.7-5.5-1.6-7.5-2.6c-2-1.1-3.5-2.4-4.5-4
					c-1-1.6-1.6-3.4-1.6-5.4c0-3.6,1.5-6.5,4.4-8.9c3-2.3,6.8-3.5,11.6-3.5c5.2,0,9.3,1.2,12.4,3.5c3.1,2.3,4.7,5.4,4.7,9.2h-12.2
					c0-3.1-1.6-4.7-5-4.7c-1.3,0-2.3,0.4-3.2,1.1c-0.9,0.7-1.3,1.6-1.3,2.6c0,1.1,0.5,2,1.6,2.6c1.1,0.7,2.7,1.2,5.1,1.7
					c2.3,0.4,4.4,1,6.1,1.6c5.9,2,8.8,5.6,8.8,10.9c0,3.6-1.6,6.5-4.8,8.7c-3.2,2.2-7.3,3.4-12.3,3.4c-3.3,0-6.3-0.6-9-1.8
					c-2.6-1.2-4.7-2.8-6.1-4.9c-1.5-2.1-2.2-4.3-2.2-6.5h11.4c0,1.8,0.6,3.1,1.8,4c1.2,0.8,2.6,1.2,4.4,1.2c1.7,0,2.9-0.3,3.7-1
					C467.3,196,467.7,195.1,467.7,194z"/>
			</g>
			<g>
				<path d="M248.2,152.4v34.4c0,3.9-0.8,7.3-2.5,10.2c-1.7,2.8-4,5-7.2,6.5c-3.1,1.5-6.8,2.2-11,2.2c-6.4,0-11.5-1.7-15.1-5
					c-3.7-3.3-5.6-7.9-5.6-13.7v-34.7h12.8v34.9c0.1,5.8,2.8,8.6,8,8.6c2.6,0,4.6-0.7,6-2.2c1.3-1.4,2-3.8,2-7v-34.4H248.2z"/>
				<path d="M277.6,205c-0.4-0.8-0.8-2-1.2-3.5c-2.2,2.8-5.4,4.2-9.4,4.2c-3.7,0-6.8-1.1-9.4-3.3c-2.6-2.2-3.9-5-3.9-8.4
					c0-4.2,1.6-7.4,4.7-9.6c3.1-2.2,7.7-3.3,13.7-3.3h3.8v-2.1c0-3.6-1.6-5.4-4.7-5.4c-2.9,0-4.3,1.4-4.3,4.3h-12.2
					c0-3.8,1.6-6.9,4.8-9.2c3.2-2.4,7.3-3.5,12.3-3.5c5,0,8.9,1.2,11.8,3.6c2.9,2.4,4.4,5.8,4.4,10v17.3c0,3.6,0.6,6.3,1.7,8.2v0.6
					H277.6z M270,197.1c1.5,0,2.8-0.3,3.8-1c1-0.6,1.7-1.4,2.2-2.2v-6.3h-3.5c-4.2,0-6.4,1.9-6.4,5.7c0,1.1,0.4,2,1.1,2.7
					C267.9,196.7,268.9,197.1,270,197.1z"/>
			</g>
		</g>
		<g>
			<path d="M217.9,235.4h-8.7l-2,5.4h-2.8l8-20.9h2.4l8,20.9h-2.8L217.9,235.4z M210,233.1h7.1l-3.6-9.8L210,233.1z"/>
			<path d="M225.4,240.8v-15.5h6c2.1,0,3.6,0.4,4.7,1.1c1.1,0.7,1.7,1.8,1.7,3.2c0,0.7-0.2,1.4-0.6,1.9c-0.4,0.6-1.1,1-1.9,1.3
				c0.9,0.2,1.7,0.6,2.2,1.3c0.6,0.6,0.9,1.4,0.9,2.3c0,1.4-0.5,2.5-1.6,3.3c-1,0.8-2.5,1.1-4.4,1.1H225.4z M228,234v4.7h4.4
				c1.1,0,1.9-0.2,2.5-0.6c0.6-0.4,0.8-1,0.8-1.7c0-1.5-1.1-2.3-3.4-2.3H228z M228,231.9h3.4c2.5,0,3.7-0.7,3.7-2.2
				c0-1.5-1.2-2.2-3.5-2.2H228V231.9z"/>
			<path d="M253.3,227.5h-5.2v13.4h-2.7v-13.4h-5.1v-2.1h13V227.5z"/>
			<path d="M254.5,232.9c0-1.5,0.3-2.9,0.9-4.1c0.6-1.2,1.4-2.1,2.5-2.8c1.1-0.7,2.3-1,3.7-1c2.1,0,3.8,0.7,5.1,2.2
				c1.3,1.5,2,3.4,2,5.8v0.2c0,1.5-0.3,2.9-0.9,4.1c-0.6,1.2-1.4,2.1-2.5,2.8c-1.1,0.7-2.3,1-3.7,1c-2.1,0-3.8-0.7-5.1-2.2
				c-1.3-1.5-1.9-3.4-1.9-5.8V232.9z M257.2,233.3c0,1.7,0.4,3.1,1.2,4.1c0.8,1,1.9,1.6,3.2,1.6c1.3,0,2.4-0.5,3.2-1.6
				c0.8-1.1,1.2-2.5,1.2-4.4c0-1.7-0.4-3.1-1.2-4.1c-0.8-1.1-1.9-1.6-3.2-1.6c-1.3,0-2.4,0.5-3.2,1.6
				C257.6,229.8,257.2,231.3,257.2,233.3z"/>
			<path d="M278.8,226.2c1.9,0,3.5,0.7,4.7,2c1.2,1.3,1.8,3,1.8,5.1v0.2c0,1.5-0.3,2.8-0.8,3.9c-0.6,1.1-1.4,2-2.4,2.7
				c-1.1,0.6-2.3,0.9-3.6,0.9c-2.1,0-3.8-0.7-5-2.1c-1.3-1.4-1.9-3.3-1.9-5.6v-1.3c0-3.3,0.6-5.8,1.8-7.8c1.2-1.9,3-3.1,5.4-3.5
				c1.3-0.2,2.2-0.5,2.7-0.9c0.5-0.3,0.7-0.8,0.7-1.4h2.2c0,1.2-0.3,2.1-0.8,2.8c-0.5,0.7-1.4,1.1-2.6,1.4l-2,0.4
				c-1.6,0.4-2.8,1-3.6,1.9c-0.8,0.9-1.3,2.1-1.5,3.5C275.1,227,276.8,226.2,278.8,226.2z M278.3,228.4c-1.3,0-2.3,0.4-3.1,1.3
				c-0.8,0.9-1.1,2.1-1.1,3.6v0.2c0,1.7,0.4,3,1.1,4c0.8,1,1.8,1.4,3.1,1.4c1.3,0,2.4-0.5,3.1-1.5c0.8-1,1.1-2.4,1.1-4.3
				c0-1.5-0.4-2.6-1.2-3.5C280.6,228.8,279.6,228.4,278.3,228.4z"/>
			<path d="M293.3,237l3.6-11.6h2.8l-6.2,17.9c-1,2.6-2.5,3.9-4.6,3.9l-0.5,0l-1-0.2v-2.1l0.7,0.1c0.9,0,1.6-0.2,2.1-0.5
				c0.5-0.4,0.9-1,1.2-2l0.6-1.6l-5.5-15.3h2.9L293.3,237z"/>
			<path d="M308.1,239c0.9,0,1.8-0.3,2.5-0.9c0.7-0.6,1.1-1.3,1.2-2.1h2.5c0,0.9-0.4,1.7-0.9,2.5c-0.6,0.8-1.3,1.4-2.3,1.9
				c-0.9,0.5-1.9,0.7-3,0.7c-2.1,0-3.8-0.7-5-2.1c-1.2-1.4-1.9-3.3-1.9-5.8v-0.4c0-1.5,0.3-2.9,0.8-4c0.6-1.2,1.3-2.1,2.4-2.7
				c1-0.6,2.3-1,3.7-1c1.7,0,3.2,0.5,4.3,1.6c1.2,1,1.8,2.4,1.8,4.1h-2.5c-0.1-1-0.5-1.8-1.1-2.5c-0.7-0.7-1.5-1-2.5-1
				c-1.3,0-2.4,0.5-3.1,1.5c-0.7,1-1.1,2.4-1.1,4.2v0.5c0,1.8,0.4,3.2,1.1,4.1C305.7,238.5,306.8,239,308.1,239z"/>
			<path d="M320.2,230.7h4c1.8,0,3.1,0.5,4.2,1.4c1,0.9,1.5,2.1,1.5,3.7c0,1.5-0.5,2.8-1.6,3.7c-1.1,0.9-2.5,1.4-4.2,1.4h-6.6v-15.5
				h2.7V230.7z M335.4,240.8h-2.7v-15.5h2.7V240.8z M320.2,232.8v5.8h3.9c1,0,1.8-0.3,2.3-0.8c0.5-0.5,0.8-1.2,0.8-2.1
				c0-0.9-0.3-1.6-0.8-2.1c-0.5-0.6-1.3-0.8-2.2-0.9H320.2z"/>
			<path d="M360,240.8h-2.7v-6.6h-7.1v6.6h-2.7v-15.5h2.7v6.7h7.1v-6.7h2.7V240.8z"/>
			<path d="M373.8,240.8c-0.2-0.3-0.3-0.8-0.4-1.6c-1.2,1.3-2.7,1.9-4.4,1.9c-1.5,0-2.8-0.4-3.8-1.3c-1-0.9-1.5-2-1.5-3.3
				c0-1.6,0.6-2.9,1.8-3.8c1.2-0.9,3-1.3,5.2-1.3h2.6v-1.2c0-0.9-0.3-1.7-0.8-2.2c-0.6-0.6-1.4-0.8-2.5-0.8c-0.9,0-1.7,0.2-2.4,0.7
				c-0.6,0.5-1,1.1-1,1.7h-2.7c0-0.8,0.3-1.5,0.8-2.2c0.6-0.7,1.3-1.3,2.2-1.7c0.9-0.4,2-0.6,3.1-0.6c1.8,0,3.2,0.4,4.2,1.3
				c1,0.9,1.5,2.1,1.6,3.7v7.1c0,1.4,0.2,2.6,0.5,3.4v0.2H373.8z M369.4,238.8c0.8,0,1.6-0.2,2.4-0.6c0.7-0.4,1.3-1,1.6-1.7v-3.2
				h-2.1c-3.2,0-4.9,0.9-4.9,2.9c0,0.8,0.3,1.5,0.8,1.9C367.9,238.6,368.6,238.8,369.4,238.8z"/>
			<path d="M387.8,240.8v-15.5h6c2.1,0,3.6,0.4,4.7,1.1c1.1,0.7,1.7,1.8,1.7,3.2c0,0.7-0.2,1.4-0.6,1.9c-0.4,0.6-1.1,1-1.9,1.3
				c0.9,0.2,1.7,0.6,2.2,1.3c0.6,0.6,0.9,1.4,0.9,2.3c0,1.4-0.5,2.5-1.6,3.3c-1,0.8-2.5,1.1-4.4,1.1H387.8z M390.4,234v4.7h4.4
				c1.1,0,1.9-0.2,2.5-0.6c0.6-0.4,0.8-1,0.8-1.7c0-1.5-1.1-2.3-3.4-2.3H390.4z M390.4,231.9h3.4c2.5,0,3.7-0.7,3.7-2.2
				c0-1.5-1.2-2.2-3.5-2.2h-3.6V231.9z"/>
			<path d="M410.5,239c0.9,0,1.8-0.3,2.5-0.9s1.1-1.3,1.2-2.1h2.5c0,0.9-0.4,1.7-0.9,2.5c-0.6,0.8-1.3,1.4-2.3,1.9
				c-0.9,0.5-1.9,0.7-3,0.7c-2.1,0-3.8-0.7-5-2.1c-1.2-1.4-1.9-3.3-1.9-5.8v-0.4c0-1.5,0.3-2.9,0.8-4c0.6-1.2,1.3-2.1,2.4-2.7
				c1-0.6,2.3-1,3.7-1c1.7,0,3.2,0.5,4.3,1.6c1.2,1,1.8,2.4,1.8,4.1h-2.5c-0.1-1-0.5-1.8-1.1-2.5c-0.7-0.7-1.5-1-2.5-1
				c-1.3,0-2.4,0.5-3.1,1.5c-0.7,1-1.1,2.4-1.1,4.2v0.5c0,1.8,0.4,3.2,1.1,4.1C408.1,238.5,409.1,239,410.5,239z"/>
			<path d="M426.1,241.1c-2.1,0-3.8-0.7-5.1-2.1c-1.3-1.4-2-3.2-2-5.5V233c0-1.5,0.3-2.9,0.9-4.1c0.6-1.2,1.4-2.2,2.5-2.8
				c1.1-0.7,2.2-1,3.4-1c2,0,3.6,0.7,4.7,2c1.1,1.3,1.7,3.2,1.7,5.7v1.1h-10.5c0,1.5,0.5,2.8,1.3,3.7c0.9,0.9,1.9,1.4,3.3,1.4
				c0.9,0,1.7-0.2,2.4-0.6c0.6-0.4,1.2-0.9,1.7-1.5l1.6,1.3C430.6,240.1,428.7,241.1,426.1,241.1z M425.7,227.2
				c-1.1,0-2,0.4-2.7,1.2c-0.7,0.8-1.2,1.9-1.3,3.3h7.8v-0.2c-0.1-1.3-0.4-2.4-1.1-3.1C427.7,227.6,426.9,227.2,425.7,227.2z"/>
			<path d="M448.7,239c0.9,0,1.8-0.3,2.5-0.9s1.1-1.3,1.2-2.1h2.5c0,0.9-0.4,1.7-0.9,2.5c-0.6,0.8-1.3,1.4-2.3,1.9
				c-0.9,0.5-1.9,0.7-3,0.7c-2.1,0-3.8-0.7-5-2.1c-1.2-1.4-1.9-3.3-1.9-5.8v-0.4c0-1.5,0.3-2.9,0.8-4c0.6-1.2,1.3-2.1,2.4-2.7
				c1-0.6,2.3-1,3.7-1c1.7,0,3.2,0.5,4.3,1.6c1.2,1,1.8,2.4,1.8,4.1h-2.5c-0.1-1-0.5-1.8-1.1-2.5c-0.7-0.7-1.5-1-2.5-1
				c-1.3,0-2.4,0.5-3.1,1.5c-0.7,1-1.1,2.4-1.1,4.2v0.5c0,1.8,0.4,3.2,1.1,4.1C446.3,238.5,447.3,239,448.7,239z"/>
			<path d="M470.6,225.3v15.5h-2.7v-13.3h-5.3l-0.3,5.8c-0.2,2.7-0.6,4.6-1.3,5.7c-0.7,1.1-1.9,1.7-3.4,1.8h-1.1v-2.3l0.8-0.1
				c0.9-0.1,1.5-0.6,1.8-1.5c0.4-0.9,0.6-2.6,0.7-5l0.3-6.6H470.6z"/>
			<path d="M479.9,237l3.6-11.6h2.8l-6.2,17.9c-1,2.6-2.5,3.9-4.6,3.9l-0.5,0l-1-0.2v-2.1l0.7,0.1c0.9,0,1.6-0.2,2.1-0.5
				c0.5-0.4,0.9-1,1.2-2l0.6-1.6l-5.5-15.3h2.9L479.9,237z"/>
			<path d="M500.4,240.8h-2.7v-5.6c-1.2,0.3-2.4,0.5-3.6,0.5c-1.9,0-3.4-0.5-4.4-1.5c-1-1-1.5-2.4-1.5-4.2v-4.6h2.7v4.7
				c0,2.3,1.2,3.5,3.3,3.5c1.2,0,2.4-0.2,3.6-0.5v-7.7h2.7V240.8z"/>
			<path d="M514.3,240.8c-0.2-0.3-0.3-0.8-0.4-1.6c-1.2,1.3-2.7,1.9-4.4,1.9c-1.5,0-2.8-0.4-3.8-1.3c-1-0.9-1.5-2-1.5-3.3
				c0-1.6,0.6-2.9,1.8-3.8c1.2-0.9,3-1.3,5.2-1.3h2.6v-1.2c0-0.9-0.3-1.7-0.8-2.2c-0.6-0.6-1.4-0.8-2.5-0.8c-0.9,0-1.7,0.2-2.4,0.7
				c-0.6,0.5-1,1.1-1,1.7h-2.7c0-0.8,0.3-1.5,0.8-2.2c0.6-0.7,1.3-1.3,2.2-1.7c0.9-0.4,2-0.6,3.1-0.6c1.8,0,3.2,0.4,4.2,1.3
				c1,0.9,1.5,2.1,1.6,3.7v7.1c0,1.4,0.2,2.6,0.5,3.4v0.2H514.3z M509.9,238.8c0.8,0,1.6-0.2,2.4-0.6c0.7-0.4,1.3-1,1.6-1.7v-3.2
				h-2.1c-3.2,0-4.9,0.9-4.9,2.9c0,0.8,0.3,1.5,0.8,1.9C508.3,238.6,509,238.8,509.9,238.8z"/>
			<path d="M530.7,225.3h2.7v15.5h-2.7v-11.3l-7.2,11.3h-2.7v-15.5h2.7v11.3L530.7,225.3z"/>
			<path d="M557.2,234.1h-1.9v6.7h-2.7v-6.7h-1.9l-4.3,6.7h-3.4l5.5-8l-5-7.5h3.2l4,6.4h1.8v-6.4h2.7v6.4h1.8l4-6.4h3.2l-5,7.5
				l5.5,8h-3.4L557.2,234.1z"/>
			<path d="M577.4,225.3h2.7v15.5h-2.7v-11.3l-7.2,11.3h-2.7v-15.5h2.7v11.3L577.4,225.3z"/>
			<path d="M592.8,229.6c0-0.7-0.3-1.3-0.8-1.7c-0.6-0.4-1.3-0.6-2.3-0.6c-0.9,0-1.7,0.2-2.4,0.7c-0.6,0.5-0.9,1.1-0.9,1.7h-2.6
				c0-1.3,0.6-2.4,1.7-3.3c1.1-0.9,2.5-1.3,4.2-1.3c1.8,0,3.2,0.4,4.2,1.2c1,0.8,1.5,1.9,1.5,3.3c0,0.7-0.2,1.3-0.6,1.9
				c-0.4,0.6-1,1-1.8,1.4c1.8,0.6,2.7,1.8,2.7,3.6c0,1.4-0.5,2.6-1.6,3.4c-1.1,0.8-2.6,1.2-4.4,1.2c-1.8,0-3.3-0.4-4.4-1.3
				c-1.2-0.9-1.7-2.1-1.7-3.6h2.6c0,0.8,0.3,1.4,1,1.9c0.7,0.5,1.5,0.8,2.5,0.8c1,0,1.8-0.2,2.5-0.7c0.6-0.5,0.9-1.1,0.9-1.8
				c0-0.9-0.3-1.5-0.8-1.9c-0.5-0.4-1.3-0.6-2.4-0.6h-2.7v-2.2h2.9C591.9,231.8,592.8,231,592.8,229.6z"/>
			<path d="M611.8,240.8h-2.7v-6.6h-7.1v6.6h-2.7v-15.5h2.7v6.7h7.1v-6.7h2.7V240.8z"/>
			<path d="M626.1,225.3h2.7v15.5h-2.7v-11.3l-7.2,11.3h-2.7v-15.5h2.7v11.3L626.1,225.3z"/>
		</g>
	</g>
</g>
</svg>
