<svg xmlns="http://www.w3.org/2000/svg" xmlns:xlink="http://www.w3.org/1999/xlink"><defs><path id="avzva" d="M691.485 160.07l-1.414 1.415-7.071-7.071-7.071 7.071-1.414-1.414 7.07-7.071-7.07-7.071 1.414-1.415 7.07 7.071 7.072-7.07 1.414 1.414-7.07 7.07z"/></defs><symbol id="arc-de-triomphe" viewBox="0 0 512 512">
<g>
	<g>
		<g>
			<path d="M42.667,59.733H51.2v34.133c0,4.71,3.814,8.533,8.533,8.533c4.71,0,8.533-3.823,8.533-8.533V59.733H76.8v25.6     c0,4.71,3.814,8.533,8.533,8.533c4.71,0,8.533-3.823,8.533-8.533v-25.6h51.2v25.6c0,4.71,3.814,8.533,8.533,8.533     c4.71,0,8.533-3.823,8.533-8.533v-25.6h51.2v25.6c0,4.71,3.814,8.533,8.533,8.533c4.71,0,8.533-3.823,8.533-8.533v-25.6h51.2     v25.6c0,4.71,3.814,8.533,8.533,8.533c4.71,0,8.533-3.823,8.533-8.533v-25.6h51.2v25.6c0,4.71,3.814,8.533,8.533,8.533     c4.71,0,8.533-3.823,8.533-8.533v-25.6h51.2v25.6c0,4.71,3.814,8.533,8.533,8.533c4.71,0,8.533-3.823,8.533-8.533v-25.6h8.533     v34.133c0,4.71,3.814,8.533,8.533,8.533c4.71,0,8.533-3.823,8.533-8.533V59.733h8.533c4.71,0,8.533-3.823,8.533-8.533     c0-4.71-3.823-8.533-8.533-8.533H42.667c-4.719,0-8.533,3.823-8.533,8.533C34.133,55.91,37.948,59.733,42.667,59.733z" fill="#0fa8b4"/>
			<path d="M187.895,76.8c-4.702,0-8.482,3.823-8.482,8.533s3.857,8.533,8.576,8.533c4.71,0,8.533-3.823,8.533-8.533     S192.7,76.8,187.989,76.8H187.895z" fill="#0fa8b4"/>
			<path d="M256.162,76.8c-4.702,0-8.482,3.823-8.482,8.533s3.857,8.533,8.576,8.533c4.71,0,8.533-3.823,8.533-8.533     s-3.823-8.533-8.533-8.533H256.162z" fill="#0fa8b4"/>
			<path d="M392.695,76.8c-4.702,0-8.482,3.823-8.482,8.533s3.857,8.533,8.576,8.533c4.71,0,8.533-3.823,8.533-8.533     S397.5,76.8,392.789,76.8H392.695z" fill="#0fa8b4"/>
			<path d="M324.429,76.8c-4.71,0-8.482,3.823-8.482,8.533s3.857,8.533,8.576,8.533c4.71,0,8.533-3.823,8.533-8.533     s-3.823-8.533-8.533-8.533H324.429z" fill="#0fa8b4"/>
			<path d="M119.629,76.8c-4.71,0-8.482,3.823-8.482,8.533s3.857,8.533,8.576,8.533c4.71,0,8.533-3.823,8.533-8.533     s-3.823-8.533-8.533-8.533H119.629z" fill="#0fa8b4"/>
			<path d="M349.867,196.267c-4.719,0-8.533,3.823-8.533,8.533v34.133c0,4.71,3.814,8.533,8.533,8.533h68.267     c4.71,0,8.533-3.823,8.533-8.533V204.8c0-4.71-3.823-8.533-8.533-8.533H349.867z M409.6,230.4h-51.2v-17.067h51.2V230.4z" fill="#0fa8b4"/>
			<path d="M51.2,174.199v73.267c0,4.71,3.814,8.533,8.533,8.533c4.71,0,8.533-3.823,8.533-8.533V179.2h375.467v68.267     c0,4.71,3.814,8.533,8.533,8.533c4.71,0,8.533-3.823,8.533-8.533v-73.267l14.566-14.566c1.596-1.596,2.5-3.772,2.5-6.033v-34.133     c0-4.71-3.823-8.533-8.533-8.533H42.667c-4.719,0-8.533,3.823-8.533,8.533V153.6c0,2.261,0.896,4.437,2.5,6.033L51.2,174.199z      M51.2,128h409.6v22.067l-12.066,12.066H63.266L51.2,150.067V128z" fill="#0fa8b4"/>
			<path d="M349.867,418.133h68.267c4.71,0,8.533-3.823,8.533-8.533v-85.333c0-4.71-3.823-8.533-8.533-8.533h-68.267     c-4.719,0-8.533,3.823-8.533,8.533V409.6C341.333,414.31,345.148,418.133,349.867,418.133z M358.4,332.8h51.2v68.267h-51.2V332.8     z" fill="#0fa8b4"/>
			<path d="M503.467,452.267H460.8V281.6h8.533c4.71,0,8.533-3.823,8.533-8.533s-3.823-8.533-8.533-8.533H323.669     C319.445,230.912,290.748,204.8,256,204.8c-34.756,0-63.454,26.112-67.678,59.733H42.667c-4.719,0-8.533,3.823-8.533,8.533     s3.814,8.533,8.533,8.533H51.2v170.667H8.533C3.814,452.267,0,456.09,0,460.8s3.814,8.533,8.533,8.533h494.933     c4.71,0,8.533-3.823,8.533-8.533S508.177,452.267,503.467,452.267z M187.733,452.267H68.267V281.6h119.467V452.267z      M307.2,452.267H204.8V281.6h8.533c4.71,0,8.533-3.823,8.533-8.533s-3.823-8.533-8.533-8.533h-7.765     c4.079-24.175,25.114-42.667,50.432-42.667c25.318,0,46.345,18.492,50.432,42.667h-7.765c-4.719,0-8.533,3.823-8.533,8.533     s3.814,8.533,8.533,8.533h8.533V452.267z M443.733,452.267H324.267V281.6h119.467V452.267z" fill="#0fa8b4"/>
			<path d="M93.867,196.267c-4.719,0-8.533,3.823-8.533,8.533v34.133c0,4.71,3.814,8.533,8.533,8.533h68.267     c4.71,0,8.533-3.823,8.533-8.533V204.8c0-4.71-3.823-8.533-8.533-8.533H93.867z M153.6,230.4h-51.2v-17.067h51.2V230.4z" fill="#0fa8b4"/>
			<path d="M93.867,418.133h68.267c4.71,0,8.533-3.823,8.533-8.533v-85.333c0-4.71-3.823-8.533-8.533-8.533H93.867     c-4.719,0-8.533,3.823-8.533,8.533V409.6C85.333,414.31,89.148,418.133,93.867,418.133z M102.4,332.8h51.2v68.267h-51.2V332.8z" fill="#0fa8b4"/>
		</g>
	</g>
</g>
<g>
</g>
<g>
</g>
<g>
</g>
<g>
</g>
<g>
</g>
<g>
</g>
<g>
</g>
<g>
</g>
<g>
</g>
<g>
</g>
<g>
</g>
<g>
</g>
<g>
</g>
<g>
</g>
<g>
</g>
</symbol><symbol id="check"><path d="M13 1L4.75 9 1 5.364" stroke="#fff" stroke-width="2" stroke-linecap="round" stroke-linejoin="round"/></symbol><symbol id="close" viewBox="0 0 18 18"><g><g transform="translate(-674 -144)"><use fill="#fff" xlink:href="#avzva"/></g></g></symbol><symbol id="delivery-man" viewBox="0 0 512 512">
<g transform="translate(1 1)">
	<g>
		<g>
			<path d="M485.4,411.16c-50.93-27.008-89.996-42.152-124.772-47.958l3.599-4.948c1.707-1.707,2.56-4.267,1.707-6.827     l-8.067-32.267c20.803-29.854,32.748-67.112,31.96-102.56v-50.76c0.579-0.417,1.149-0.847,1.707-1.293     c11.093-9.387,17.067-23.04,17.067-36.693c0-64-52.053-116.053-115.2-116.053h-75.947c-64,0-116.053,52.053-116.907,115.2     c0,14.507,5.973,27.307,17.067,36.693c0.279,0.215,0.57,0.415,0.853,0.624V216.6c0,35.558,12.446,72.939,33.597,102.839     l-7.997,31.987c0,1.707,0,4.267,1.707,6.827l3.599,4.948c-34.776,5.807-73.843,20.95-124.772,47.958     C8.387,418.84-1,435.053-1,452.973v36.693c0,5.12,3.413,8.533,8.533,8.533h494.933c5.12,0,8.533-3.413,8.533-8.533v-36.693     C511,435.907,500.76,419.693,485.4,411.16z M344.6,336.067l3.413,15.36l-8.717,11.969c-0.556,0.455-1.071,1.006-1.523,1.684     l-46.933,64.853l-23.009-51.982c24.824-2.986,47.238-14.489,65.882-31.265C337.457,343.385,341.093,339.844,344.6,336.067z      M380.44,150.893c-0.224,0.196-0.458,0.378-0.687,0.567c-0.959,0.223-1.89,0.582-2.726,1.14     c-3.692,2.769-7.634,4.53-11.689,5.303c-3.216,0.493-6.488,0.449-9.644-0.183c-61.203-11.621-123.109-12.69-182.526-3.21     c-6.594,0.953-13.167,2.019-19.714,3.21c-1.051,0.117-2.102,0.181-3.151,0.202c-6.86-0.123-13.508-2.029-19.036-6.175     c-5.12-3.413-8.533-8.533-10.24-13.653l36.693-6.827c64-11.947,129.707-11.947,195.413,0l36.407,6.773     C387.651,142.871,384.504,147.337,380.44,150.893z M216.6,28.867h75.947c52.343,0,95.272,40.762,98.752,92.233l-35.605-6.046     c-67.413-11.947-135.68-11.947-201.387,0l-35.605,6.046C122.179,69.629,165.075,28.867,216.6,28.867z M135.533,173.08     c6.827,1.707,14.507,2.56,22.187,0.853c31.861-5.947,64.144-8.932,96.64-8.958c32.5,0.026,65.21,3.01,97.92,8.958     c2.331,0.583,4.261,0.764,6.068,0.823c5.372,0.407,10.986-0.393,16.118-1.676v43.52c0,37.209-12.764,70.274-31.929,95.407     l-0.498,0.166c-0.853,0.853-1.707,1.707-2.56,2.56c-4.293,5.724-8.824,10.943-13.558,15.649     c-21.188,19.74-46.685,31.284-70.921,31.284c0,0-0.001,0-0.001,0c-0.887,0-1.772-0.018-2.657-0.046     c-14.418-0.496-29.207-5.012-43.208-12.837c-13.895-7.982-26.966-19.49-38.614-34.051c-0.853-0.853-1.707-1.707-2.56-2.56     l-0.498-0.166c-19.164-25.134-31.929-58.199-31.929-95.407V173.08z M242.169,377.951l-23.009,51.982l-46.933-64.853     c-0.272-0.272-0.572-0.541-0.884-0.806l-9.356-12.848l3.413-15.36c1.154,1.243,2.325,2.454,3.506,3.646     C188.983,360.249,214.035,374.568,242.169,377.951z M493.933,481.133H297.667h-281.6v-28.16c0-11.093,5.973-21.333,16.213-26.453     c54.393-28.896,93.548-43.399,128.428-47.731l53.332,73.331c1.34,2.011,3.215,2.959,5.608,3.277     c0.404,0.08,0.811,0.136,1.218,0.136c0,0,0.853,0,0.853,0.853c2.56,0,5.973-2.56,6.827-5.12l26.501-59.628l11.291,24.767     l15.115,34.008c0.853,2.56,3.413,5.12,6.827,5.12h0.853c2.56,0,5.12-1.707,6.827-3.413l53.883-74.09     c34.757,5.245,74.615,19.737,127.877,47.636c10.24,5.973,16.213,16.213,16.213,27.307V481.133z" fill="#FFFFFF"/>
			<path d="M237.933,97.133h34.133c5.12,0,8.533-3.413,8.533-8.533V45.933c0-5.12-3.413-8.533-8.533-8.533h-34.133     c-5.12,0-8.533,3.413-8.533,8.533V88.6C229.4,93.72,232.813,97.133,237.933,97.133z M246.467,54.467h17.067v25.6h-17.067V54.467z     " fill="#FFFFFF"/>
		</g>
	</g>
</g>
<g>
</g>
<g>
</g>
<g>
</g>
<g>
</g>
<g>
</g>
<g>
</g>
<g>
</g>
<g>
</g>
<g>
</g>
<g>
</g>
<g>
</g>
<g>
</g>
<g>
</g>
<g>
</g>
<g>
</g>
</symbol><symbol id="donation" viewBox="0 0 512.011 512.011">
<g>
	<g>
		<g>
			<path d="M415.343,53.646c12.006,4.258,21.7,13.978,25.958,25.984c1.237,3.507,4.531,5.692,8.038,5.692     c0.947,0,1.911-0.162,2.85-0.495c4.437-1.57,6.767-6.451,5.197-10.889c-6.033-17.067-19.285-30.327-36.335-36.378     c-4.446-1.562-9.318,0.751-10.897,5.188C408.585,47.195,410.897,52.068,415.343,53.646z" fill="#FFFFFF"/>
			<path d="M337.246,289.098c1.28,0.691,2.679,1.041,4.087,1.041c1.408,0,2.816-0.35,4.087-1.041     c97.118-52.975,149.513-140.126,149.513-195.226c0-51.763-42.103-93.867-93.867-93.867c-36.352,0-69.769,21.291-85.12,54.255     c-1.997,4.275-0.145,9.353,4.122,11.341c4.275,1.997,9.353,0.137,11.341-4.13c12.57-26.974,39.91-44.399,69.658-44.399     c42.351,0,76.8,34.449,76.8,76.8c0,50.099-50.97,129.707-136.533,177.971C255.77,223.579,204.8,143.972,204.8,93.872     c0-42.351,34.458-76.8,76.8-76.8c10.692,0,21.035,2.15,30.754,6.4c4.318,1.886,9.344-0.077,11.238-4.395     c1.886-4.318-0.085-9.344-4.403-11.238c-11.878-5.197-24.525-7.834-37.589-7.834c-51.755,0-93.867,42.103-93.867,93.867     C187.733,148.972,240.137,236.123,337.246,289.098z" fill="#FFFFFF"/>
			<path d="M110.933,324.272H179.2c9.95,0,26.88,12.698,41.813,23.893c18.722,14.046,36.403,27.307,52.053,27.307h51.2     c12.954,0,19.396,5.879,19.567,6.033c1.664,1.664,3.849,2.5,6.033,2.5c2.185,0,4.361-0.836,6.033-2.5     c3.328-3.337,3.328-8.738,0-12.066c-1.135-1.126-11.614-11.034-31.633-11.034h-51.2c-9.958,0-26.88-12.698-41.813-23.893     c-18.731-14.046-36.412-27.307-52.053-27.307h-68.267c-4.719,0-8.533,3.823-8.533,8.533     C102.4,320.449,106.214,324.272,110.933,324.272z" fill="#FFFFFF"/>
			<path d="M42.667,456.539c0-7.057-5.743-12.8-12.8-12.8s-12.8,5.743-12.8,12.8s5.743,12.8,12.8,12.8     S42.667,463.596,42.667,456.539z" fill="#FFFFFF"/>
			<path d="M507.426,358.406c-4.565-7.893-11.921-13.542-20.727-15.898c-8.815-2.372-18.014-1.161-25.37,3.123l-98.219,47.804     c-15.258,7.637-30.677,7.637-64.444,7.637c-33.024,0-83.43-8.337-83.934-8.414c-4.651-0.76-9.045,2.372-9.822,7.006     c-0.768,4.651,2.372,9.045,7.014,9.822c2.125,0.358,52.301,8.653,86.741,8.653c35.43,0,53.214,0,71.996-9.395l98.671-48.051     c8.132-4.71,18.603-1.911,23.313,6.246c2.278,3.951,2.876,8.55,1.698,12.954s-4.002,8.081-8.192,10.505l-115.371,71.808     c-0.247,0.154-24.858,15.667-80.649,15.667c-48.375,0-123.11-41.182-124.186-41.771c-0.768-0.384-19.277-9.429-55.014-9.429     c-4.719,0-8.533,3.823-8.533,8.533c0,4.71,3.814,8.533,8.533,8.533c31.036,0,47.019,7.458,47.053,7.458     c3.226,1.792,79.343,43.742,132.147,43.742c61.602,0,88.934-17.749,89.839-18.355l114.961-71.552     c7.893-4.557,13.542-11.921,15.898-20.719C513.195,375.498,511.983,366.299,507.426,358.406z" fill="#FFFFFF"/>
			<path d="M59.733,273.072h-51.2c-4.719,0-8.533,3.823-8.533,8.533s3.814,8.533,8.533,8.533h51.2c4.702,0,8.533,3.831,8.533,8.533     v187.733c0,4.702-3.831,8.533-8.533,8.533h-51.2c-4.719,0-8.533,3.823-8.533,8.533c0,4.71,3.814,8.533,8.533,8.533h51.2     c14.114,0,25.6-11.486,25.6-25.6V298.672C85.333,284.558,73.847,273.072,59.733,273.072z" fill="#FFFFFF"/>
		</g>
	</g>
</g>
<g>
</g>
<g>
</g>
<g>
</g>
<g>
</g>
<g>
</g>
<g>
</g>
<g>
</g>
<g>
</g>
<g>
</g>
<g>
</g>
<g>
</g>
<g>
</g>
<g>
</g>
<g>
</g>
<g>
</g>
</symbol><symbol id="germany" viewBox="0 0 511 511"><g><path d="m215.5 352h16v15h-16z" fill="#0fa8b4"/><path d="m247.5 352h16v15h-16z" fill="#0fa8b4"/><path d="m279.5 352h16v15h-16z" fill="#0fa8b4"/><path d="m432.312 219.015c-14.362-27.404-35.26-51.461-60.432-69.569l-8.76 12.176c17.601 12.663 32.937 28.471 45.116 46.379h-50.344c-4.816-13.294-10.598-25.719-17.296-37.027 12.227-23.683 18.404-46.256 18.404-67.474 0-57.07-46.43-103.5-103.5-103.5s-103.5 46.43-103.5 103.5c0 21.218 6.177 43.791 18.405 67.473-6.698 11.309-12.48 23.733-17.296 37.027h-50.344c12.179-17.908 27.515-33.716 45.116-46.379l-8.76-12.176c-25.172 18.108-46.069 42.165-60.432 69.569-14.843 28.321-22.689 60.302-22.689 92.486 0 110.005 89.495 199.5 199.5 199.5s199.5-89.495 199.5-199.5c0-32.184-7.846-64.165-22.688-92.485zm-184.312 276.506c-24.368-3.107-47.292-21.307-65.218-52.036-5.135-8.803-9.692-18.344-13.638-28.485h78.856zm15 0v-80.521h78.856c-3.946 10.142-8.503 19.682-13.638 28.485-17.926 30.729-40.85 48.929-65.218 52.036zm0-95.521v-16.5h-15v16.5h-84.108c-7.748-24.697-12.146-52.255-12.799-81h96.907v16.5h15v-16.5h96.907c-.653 28.745-5.051 56.303-12.799 81zm-191.835-81h64.925c.623 28.527 4.781 56.022 12.134 81h-54.571c-13.301-24.228-21.312-51.748-22.488-81zm134.401-96c18.396 22.225 35.877 38.194 42.434 43.94v37.06h-96.903c.672-28.499 5.153-56.225 12.896-81zm99.868 0h41.573c7.743 24.775 12.224 52.501 12.896 81h-96.903v-37.06c6.557-5.746 24.038-21.715 42.434-43.94zm69.476 96h64.925c-1.176 29.252-9.187 56.772-22.488 81h-54.572c7.353-24.978 11.512-52.473 12.135-81zm42.498-96c.543.991 1.093 1.978 1.618 2.979 12.568 23.979 19.69 50.806 20.802 78.021h-64.918c-.618-28.627-4.765-56.079-12.103-81zm-75.621-15h-24.583c5.444-7.333 10.36-14.58 14.747-21.733 3.598 6.835 6.885 14.101 9.836 21.733zm-86.287-193c48.799 0 88.5 39.701 88.5 88.5 0 65.465-69.415 132.753-88.503 150.014-19.094-17.249-88.497-84.471-88.497-150.014 0-48.799 39.701-88.5 88.5-88.5zm-76.451 171.267c4.387 7.153 9.303 14.399 14.747 21.733h-24.583c2.951-7.632 6.238-14.898 9.836-21.733zm-87.074 39.712c.524-1 1.074-1.988 1.618-2.979h54.601c-7.338 24.921-11.485 52.373-12.103 81h-64.919c1.112-27.215 8.234-54.042 20.803-78.021zm10.866 189.021h50.302c4.672 12.915 10.247 25.012 16.683 36.044 8.405 14.408 17.904 26.4 28.205 35.78-39.1-12.848-72.476-38.428-95.19-71.824zm210.128 71.824c10.301-9.38 19.8-21.372 28.205-35.78 6.435-11.032 12.01-23.129 16.683-36.044h50.302c-22.714 33.396-56.09 58.976-95.19 71.824z" fill="#0fa8b4"/><path d="m327 103.5c0-39.425-32.075-71.5-71.5-71.5s-71.5 32.075-71.5 71.5 32.075 71.5 71.5 71.5 71.5-32.075 71.5-71.5zm-71.5-56.5c19.5 0 36.723 9.931 46.881 25h-93.762c10.158-15.069 27.381-25 46.881-25zm-54.036 40h108.072c1.598 5.222 2.464 10.761 2.464 16.5s-.866 11.278-2.464 16.5h-108.072c-1.598-5.222-2.464-10.761-2.464-16.5s.866-11.278 2.464-16.5zm7.155 48h93.762c-10.158 15.069-27.381 25-46.881 25s-36.723-9.931-46.881-25z" fill="#0fa8b4"/></g></symbol><symbol id="graduated" viewBox="0 0 512 512"><g><path d="m403.802 334.499-30.049-8.823-65.376-42.701v-9.784c18.928-14.277 31.926-36.1 34.342-61.115 9.493-1.528 16.766-9.777 16.766-19.693v-26.905c0-.104-.011-.206-.016-.31v-34.082c3.782-2.708 6.182-7.119 6.182-12.067v-31.19l45.117-7.685c7.415-1.263 12.747-7.152 13.271-14.655.522-7.503-3.941-14.075-11.108-16.354l-152.097-48.378c-3.174-1.01-6.526-1.009-9.698-.001l-152.099 48.379c-7.167 2.279-11.631 8.851-11.108 16.353.332 4.767 2.61 8.877 6.126 11.569v40.787h-.372c-8.565 0-15.533 6.968-15.533 15.533v20.246l-10.027 58.852c-1.733 10.179 6.107 19.496 16.457 19.496h33.949c10.327 0 18.194-9.295 16.457-19.497l-10.027-58.851v-20.246c0-8.565-6.968-15.533-15.533-15.533h-.371v-36.363l37.294 6.352v31.186c0 4.927 2.389 9.331 6.153 12.043l.014 34.419v26.902c0 9.917 7.273 18.165 16.766 19.693 2.415 25.001 15.399 46.814 34.309 61.092v9.83l-65.362 42.693-30.025 8.813c-32.129 9.43-54.815 38.927-54.815 73.215v22.352c0 4.142 3.357 7.5 7.5 7.5s7.5-3.357 7.5-7.5v-22.352c0-27.024 18.109-51.213 44.04-58.823l27.976-8.212 111.766 66.413c2.269 1.348 5.271 1.42 7.662 0l111.773-66.417 27.973 8.212c25.927 7.612 44.036 31.8 44.036 58.822v72.438c0 9.291-7.559 16.85-16.85 16.85h-33.057v-32.328c0-4.142-3.357-7.5-7.5-7.5-4.142 0-7.5 3.357-7.5 7.5v32.328h-245.448v-32.328c0-4.142-3.357-7.5-7.5-7.5s-7.5 3.357-7.5 7.5v32.328h-33.023c-9.291 0-16.85-7.559-16.85-16.85v-15.022c0-4.142-3.357-7.5-7.5-7.5s-7.5 3.357-7.5 7.5v15.021c0 17.562 14.287 31.849 31.849 31.849h341.527c17.562 0 31.849-14.287 31.849-31.849v-72.438c0-33.48-21.912-63.555-54.81-73.214zm-285.274-117.528h-33.948c-1.049 0-1.849-.937-1.671-1.978l9.07-53.236h19.15l9.07 53.235c.177 1.039-.617 1.979-1.671 1.979zm-8.569-83.594v13.381h-16.811v-13.381c0-.295.239-.534.534-.534h15.742c.296-.001.535.239.535.534zm119.218 239.794 2.985 4.588-76.569-45.497 48.601-31.745c2.204 25.86 10.728 50.745 24.983 72.654zm-.052-32.375c17.653 2.508 36.087 2.51 53.75 0-3.413 8.398-7.619 16.502-12.624 24.196l-14.251 21.904-14.251-21.904c-5.005-7.694-9.211-15.798-12.624-24.196zm53.698 32.375c14.255-21.909 22.779-46.794 24.982-72.654l48.601 31.744-76.568 45.498zm43.871-239.292h17.776v24.098h-8.823c-4.937 0-8.954-4.016-8.954-8.953v-15.145zm-223.111-70.45 152.101-48.38c.195-.062.405-.063.603.001l152.1 48.379c.314.1.745.236.69 1.017-.055.78-.5.855-.826.911l-50.288 8.565-18.88-2.335c-4.108-.509-7.854 2.413-8.363 6.523-.508 4.111 2.413 7.855 6.523 8.363l13.41 1.659v30.748l-189.305-.007v-30.742l77.607-9.603c11.304-1.397 22.764-1.397 34.06 0l29.373 3.633c4.11.509 7.855-2.412 8.364-6.522.509-4.111-2.412-7.855-6.522-8.364l-29.373-3.633c-12.517-1.549-25.217-1.549-37.743 0l-83.094 10.282-50.303-8.567c-.326-.056-.771-.131-.826-.911-.054-.781.377-.918.692-1.017zm63.928 94.548-.01-24.098h17.805v15.146c0 4.936-4.016 8.953-8.954 8.953h-8.841zm16.507 50.244c-.386-6.107-5.462-10.891-11.555-10.891-2.729 0-4.949-2.22-4.949-4.948v-19.405h8.838c13.207 0 23.953-10.745 23.953-23.952v-15.146h111.389v15.146c0 13.207 10.746 23.952 23.953 23.952h8.838v19.405c0 2.728-2.22 4.948-4.949 4.948-6.093 0-11.169 4.784-11.555 10.892-2.389 37.869-34.007 67.534-71.982 67.534s-69.592-29.665-71.981-67.535zm71.982 82.534c13.339 0 26.017-3.05 37.378-8.473v4.753c0 12.823-1.73 25.472-5.061 37.672-20.382 3.886-43.425 4.043-64.634 0-3.331-12.199-5.061-24.848-5.061-37.672 0-.159-.022-.314-.032-.471-.002-.031.001-.062-.001-.093v-4.204c11.369 5.432 24.059 8.488 37.411 8.488z" fill="#0fa8b4"/></g></symbol><symbol id="mortarboard" viewBox="0 0 512 512">
<g>
	<g>
		<g>
			<path d="M360.465,443.988c-4.574-1.161-9.207,1.638-10.342,6.204l-8.533,34.133c-1.152,4.582,1.638,9.207,6.212,10.351     c0.691,0.179,1.391,0.256,2.074,0.256c3.823,0,7.296-2.586,8.269-6.46l8.533-34.133     C367.821,449.765,365.039,445.132,360.465,443.988z" fill="#0fa8b4"/>
			<path d="M256,273.066c1.109,0,2.219-0.213,3.26-0.648l93.867-38.844c4.352-1.801,6.417-6.793,4.617-11.145     c-1.801-4.361-6.81-6.409-11.153-4.625L256,255.299L17.067,156.432v-2.833c0-4.71-3.823-8.533-8.533-8.533S0,148.889,0,153.599     v8.533c0,3.456,2.082,6.571,5.274,7.885l247.467,102.4C253.781,272.852,254.891,273.066,256,273.066z" fill="#0fa8b4"/>
			<path d="M357.513,360.49c-2.082-4.224-7.185-5.965-11.426-3.874c-16.205,8.013-43.273,17.331-81.553,18.603v-76.553     c0-4.71-3.823-8.533-8.533-8.533s-8.533,3.823-8.533,8.533v76.476c-105.958-3.379-140.151-67.567-145.067-78.251v-57.958     c0-4.71-3.823-8.533-8.533-8.533c-4.71,0-8.533,3.823-8.533,8.533v59.733c0,1.084,0.205,2.159,0.606,3.174     c1.485,3.695,37.803,90.692,170.061,90.692c46.225,0,78.618-11.213,97.647-20.617     C357.879,369.825,359.612,364.714,357.513,360.49z" fill="#0fa8b4"/>
			<path d="M384,452.266c-4.719,0-8.533,3.823-8.533,8.533v25.6c0,4.71,3.814,8.533,8.533,8.533c4.719,0,8.533-3.823,8.533-8.533     v-25.6C392.533,456.089,388.719,452.266,384,452.266z" fill="#0fa8b4"/>
			<path d="M503.467,145.066c-4.719,0-8.533,3.823-8.533,8.533v2.816l-102.4,42.146v-15.42l114.193-47.258     c3.191-1.314,5.274-4.429,5.274-7.885c0-3.456-2.082-6.562-5.265-7.885L259.26,17.714c-2.091-0.862-4.429-0.862-6.519,0     L5.274,120.114C2.082,121.437,0,124.543,0,127.999c0,3.456,2.082,6.571,5.274,7.885l247.467,102.4     c1.041,0.435,2.15,0.649,3.26,0.649s2.219-0.213,3.26-0.649l89.481-37.026c4.361-1.792,6.426-6.784,4.625-11.145     c-1.801-4.352-6.793-6.409-11.145-4.617L256,221.166L30.848,127.999L256,34.832l225.152,93.167l-97.971,40.542l-93.841-35.038     c0.495-1.775,0.794-3.601,0.794-5.504c0-14.353-14.993-25.6-34.133-25.6s-34.133,11.247-34.133,25.6     c0,14.353,14.993,25.6,34.133,25.6c8.542,0,16.162-2.33,22.084-6.084l97.382,36.361v27.341v0.009v182.878     c-9.907,3.541-17.067,12.919-17.067,24.03c0,14.114,11.486,25.6,25.6,25.6s25.6-11.486,25.6-25.6     c0-11.11-7.159-20.488-17.067-24.03v-48.435c24.499-18.492,33.28-43.119,33.664-44.211c0.307-0.896,0.469-1.843,0.469-2.79     v-59.733c0-4.71-3.814-8.533-8.533-8.533s-8.533,3.823-8.533,8.533v58.155c-1.476,3.618-6.605,14.771-17.067,25.779V217.019     l114.185-46.993c3.2-1.314,5.282-4.437,5.282-7.893v-8.533C512,148.889,508.186,145.066,503.467,145.066z M256,136.532     c-10.419,0-17.067-5.052-17.067-8.533c0-3.482,6.647-8.533,17.067-8.533s17.067,5.052,17.067,8.533     C273.067,131.481,266.419,136.532,256,136.532z M384,426.666c-4.71,0-8.533-3.831-8.533-8.533c0-4.702,3.823-8.533,8.533-8.533     s8.533,3.831,8.533,8.533C392.533,422.834,388.71,426.666,384,426.666z" fill="#0fa8b4"/>
			<path d="M417.877,450.192c-1.143-4.565-5.786-7.356-10.342-6.204c-4.574,1.143-7.356,5.777-6.212,10.351l8.533,34.133     c0.973,3.874,4.446,6.46,8.269,6.46c0.683,0,1.382-0.077,2.074-0.256c4.574-1.143,7.356-5.769,6.212-10.351L417.877,450.192z" fill="#0fa8b4"/>
		</g>
	</g>
</g>
<g>
</g>
<g>
</g>
<g>
</g>
<g>
</g>
<g>
</g>
<g>
</g>
<g>
</g>
<g>
</g>
<g>
</g>
<g>
</g>
<g>
</g>
<g>
</g>
<g>
</g>
<g>
</g>
<g>
</g>
</symbol><symbol id="refresh" viewBox="0 0 64 64"><g id="arrow-refresh-transfer-user_interface-interface" data-name="arrow-refresh-transfer-user interface-interface"><path d="M32,62a29.736,29.736,0,0,1-22-9.6V55a4,4,0,0,1-8,0V38a1,1,0,0,1,1-1H20a4,4,0,0,1,0,8H16.811a20.121,20.121,0,0,0,20.447,6.333A19.658,19.658,0,0,0,51.741,35.277a5.02,5.02,0,0,1,4.94-4.3h.127a4.91,4.91,0,0,1,4.836,5.661A29.826,29.826,0,0,1,32,62ZM9,48.66a1,1,0,0,1,.793.392A28,28,0,0,0,59.667,36.331a2.909,2.909,0,0,0-2.87-3.354h-.116a3.032,3.032,0,0,0-2.966,2.616A21.653,21.653,0,0,1,37.75,53.271a22.064,22.064,0,0,1-23.792-8.7A1,1,0,0,1,14.78,43H20a2,2,0,0,0,0-4H4V55a2,2,0,0,0,4,0V49.66a1,1,0,0,1,1-1Z" fill="#0fa8b4"/><path d="M7.325,33A5,5,0,0,1,2.38,27.214,30.006,30.006,0,0,1,54,11.6V9a4,4,0,0,1,8,0V26a1,1,0,0,1-1,1H44a4,4,0,0,1,0-8h3.188a19.994,19.994,0,0,0-34.923,9.735A5.022,5.022,0,0,1,7.325,33ZM32,4A27.862,27.862,0,0,0,4.354,27.53,3.006,3.006,0,0,0,7.325,31a3.029,3.029,0,0,0,2.966-2.588,21.993,21.993,0,0,1,39.751-8.983A1,1,0,0,1,49.22,21H44a2,2,0,0,0,0,4H60V9a2,2,0,0,0-4,0v5.34a1,1,0,0,1-1.793.608A27.78,27.78,0,0,0,32,4Z" fill="#0fa8b4"/></g></symbol><symbol id="star" viewBox="0 0 55.867 55.867">
<path d="M11.287,54.548c-0.207,0-0.414-0.064-0.588-0.191c-0.308-0.224-0.462-0.603-0.397-0.978l3.091-18.018L0.302,22.602  c-0.272-0.266-0.37-0.663-0.253-1.024c0.118-0.362,0.431-0.626,0.808-0.681l18.09-2.629l8.091-16.393  c0.168-0.342,0.516-0.558,0.896-0.558l0,0c0.381,0,0.729,0.216,0.896,0.558l8.09,16.393l18.091,2.629  c0.377,0.055,0.689,0.318,0.808,0.681c0.117,0.361,0.02,0.759-0.253,1.024L42.475,35.363l3.09,18.017  c0.064,0.375-0.09,0.754-0.397,0.978c-0.308,0.226-0.717,0.255-1.054,0.076l-16.18-8.506l-16.182,8.506  C11.606,54.51,11.446,54.548,11.287,54.548z M3.149,22.584l12.016,11.713c0.235,0.229,0.343,0.561,0.287,0.885L12.615,51.72  l14.854-7.808c0.291-0.154,0.638-0.154,0.931,0l14.852,7.808l-2.836-16.538c-0.056-0.324,0.052-0.655,0.287-0.885l12.016-11.713  l-16.605-2.413c-0.326-0.047-0.607-0.252-0.753-0.547L27.934,4.578l-7.427,15.047c-0.146,0.295-0.427,0.5-0.753,0.547L3.149,22.584z  " fill="#FFFFFF"/>
<g>
</g>
<g>
</g>
<g>
</g>
<g>
</g>
<g>
</g>
<g>
</g>
<g>
</g>
<g>
</g>
<g>
</g>
<g>
</g>
<g>
</g>
<g>
</g>
<g>
</g>
<g>
</g>
<g>
</g>
</symbol><symbol id="tourists" viewBox="0 0 505.001 505.001">
<g>
	<path d="M156.854,104.905c4.142,0,7.5-3.358,7.5-7.5v-9.857c0-4.142-3.358-7.5-7.5-7.5s-7.5,3.358-7.5,7.5v9.857   C149.354,101.547,152.712,104.905,156.854,104.905z" fill="#0fa8b4"/>
	<path d="M193.67,166.769c-3.083-8.835-5.641-12.983-5.911-13.408c-1.376-2.167-3.765-3.48-6.332-3.48h-20.52   c-2.465,0-4.773,1.212-6.174,3.241l-7.629,11.06c-1.322,1.917-3.417,3.018-5.747,3.018c-2.127,0-4.051-0.926-5.378-2.545   c3.272-0.807,5.702-3.753,5.702-7.274v-8.912c13.125-0.113,25.185-4.75,34.703-12.427h33.11c4.142,0,7.5-3.358,7.5-7.5V75.79   c0-41.791-34.004-75.79-75.81-75.79C99.838,0,66.142,33.284,65.428,74.462H44.979v-4.229c0-4.142-3.358-7.5-7.5-7.5   s-7.5,3.358-7.5,7.5v4.229H9.078c-4.142,0-7.5,3.358-7.5,7.5v75.417c0,20.121,3.821,36.841,11.357,49.697   c7.091,12.095,17.069,19.996,28.857,22.848c3.115,0.754,6.252,1.12,9.377,1.12c9.682,0,19.229-3.521,27.497-9.921   c-0.762,9.245-1.228,19.566-1.264,31.035c-1.71,4.527-7.211,19.863-12.082,41.92c-0.893,4.045,1.662,8.048,5.707,8.941   c4.042,0.891,8.047-1.661,8.941-5.707c3.857-17.469,8.188-30.668,10.406-36.932c39.279-5.367,62.677-5.366,101.955-0.001   c5.016,14.232,20.881,64.287,17.85,120.161H72.532c-0.962-17.661-0.134-36.265,2.471-55.412c0.558-4.104-2.316-7.884-6.42-8.443   c-4.105-0.552-7.884,2.317-8.443,6.42c-3.092,22.729-3.794,44.782-2.087,65.548c0.32,3.891,3.571,6.886,7.475,6.886h25.832   c0.465,18.366,2.046,66.27,6.353,94.461H95.07c-4.142,0-7.5,3.358-7.5,7.5s3.358,7.5,7.5,7.5h30.186   c0.006,0,0.011-0.002,0.016-0.002c4.034-0.01,7.339-3.209,7.477-7.242c0.014-0.425,1.426-39.662,8.605-93.701   c7.172,53.993,8.59,93.276,8.605,93.702c0.139,4.036,3.449,7.238,7.487,7.242c0.004,0,0.008,0.001,0.012,0.001h30.185   c4.142,0,7.5-3.358,7.5-7.5s-3.358-7.5-7.5-7.5h-2.645c4.313-28.193,5.896-76.095,6.361-94.461h25.827   c3.904,0,7.155-2.995,7.475-6.886c3.107-37.802-2.442-73.208-7.645-96.253c-2.942-13.034-6.09-23.594-8.213-30.158   c-1.656-5.12-2.732-8.195-3.492-10.117c-0.072-22.621-1.823-40.769-4.196-55.022c5.02,8.009,10.143,18.408,14.693,31.081   c10.942,30.475,15.063,64.382,11.601,95.475c-0.458,4.117,2.508,7.825,6.625,8.284c0.282,0.031,0.562,0.046,0.839,0.046   c3.771,0,7.018-2.836,7.445-6.671c3.709-33.321-0.692-69.617-12.392-102.203C220.261,196.199,206.568,175.017,193.67,166.769z    M127.372,395.54c-6.126,44.246-8.488,79.806-9.273,94.46h-5.205c-4.354-26.177-6.026-75.553-6.524-94.46H127.372z M169.815,490   h-5.207c-0.785-14.655-3.147-50.215-9.273-94.46h21.012C175.849,414.447,174.176,463.824,169.815,490z M134.182,74.462h-34.148   v-2.752l82.32,0.009V92.31c0,22.538-18.201,40.894-40.672,41.157V81.962C141.682,77.82,138.324,74.462,134.182,74.462z M141.194,15   c33.525,0,60.8,27.27,60.8,60.79v45.25h-12.567c5.028-8.412,7.927-18.237,7.927-28.73V64.22c0-4.142-3.357-7.5-7.499-7.5   l-97.32-0.01c0,0,0,0-0.001,0c-1.989,0-3.896,0.79-5.303,2.197s-2.197,3.314-2.197,5.303v10.252h-4.606   C81.139,41.555,108.11,15,141.194,15z M16.578,89.462h110.104v60.417H16.578V89.462z M82.19,193.567   c-8.526,16.586-22.999,25.133-36.87,21.778c-16.284-3.94-26.894-23.005-28.517-50.465h72.919   c-2.379,6.467-5.17,15.847-7.495,28.623C82.216,193.525,82.202,193.545,82.19,193.567z M92.489,244.968   c0.959-47.175,9.644-71.637,13.407-80.087h11.974l5.394,7.819c4.104,5.948,10.868,9.5,18.094,9.5s13.991-3.552,18.094-9.5   l5.393-7.819h12.017c3.789,8.35,12.422,32.461,13.366,80.088C153.562,240.193,129.154,240.193,92.489,244.968z" fill="#0fa8b4"/>
	<path d="M345.773,72.47c-4.142,0-7.5,3.358-7.5,7.5v9.857c0,4.142,3.358,7.5,7.5,7.5s7.5-3.358,7.5-7.5V79.97   C353.273,75.828,349.916,72.47,345.773,72.47z" fill="#0fa8b4"/>
	<path d="M495.923,74.462h-20.901v-4.229c0-4.142-3.358-7.5-7.5-7.5s-7.5,3.358-7.5,7.5v4.229h-13.708   c-1.859-11.606-11.939-20.502-24.06-20.502c-0.115,0-0.23,0.001-0.345,0.002c-2.685-12.356-9.088-23.634-18.498-32.365   C391.877,10.894,376.855,5,361.114,5c-15.74,0-30.762,5.892-42.299,16.591c-9.409,8.725-15.813,20.005-18.497,32.372   c-0.118-0.002-0.235-0.002-0.354-0.002c-13.432,0-24.36,10.932-24.36,24.37c0,13.432,10.928,24.36,24.36,24.36   c0.375,0,0.748-0.009,1.121-0.026c7.278,26.613,31.794,45.816,60.029,45.816c0.737,0,1.472-0.023,2.206-0.049v8.948   c0,2.823,1.562,5.279,3.866,6.559l-5.913,8.574L347.9,153.122c-1.4-2.03-3.709-3.242-6.174-3.242h-20.525   c-2.8,0-5.366,1.559-6.656,4.044c-0.311,0.599-2.576,5.027-5.677,12.651c-37.694,18.747-74.845,93.104-51.336,164.112   c1.043,3.15,3.973,5.145,7.119,5.145c0.781,0,1.576-0.123,2.358-0.382c3.932-1.302,6.064-5.545,4.763-9.478   c-18.249-55.12,3.95-108.734,28.211-133.922c-6.481,21.834-12.671,51.778-12.671,86.524c0,0.358,0.024,36.365,2.085,81.221   c2.523,54.922,6.842,98.648,12.851,130.206h-7.436c-4.142,0-7.5,3.358-7.5,7.5s3.358,7.5,7.5,7.5h35.186   c4.042,0,7.356-3.203,7.496-7.242c0.029-0.83,3.026-82.271,22.031-172.931h3.498c19.006,90.66,22.003,172.101,22.032,172.931   c0.139,4.039,3.454,7.242,7.496,7.242h35.186c4.142,0,7.5-3.358,7.5-7.5s-3.358-7.5-7.5-7.5h-7.436   c6.009-31.558,10.328-75.284,12.851-130.206c2.061-44.856,2.085-80.863,2.085-81.221c0-20.029-2.099-38.524-5.113-54.775   c7.336,4.698,15.474,7.244,23.71,7.244c3.125,0,6.264-0.366,9.377-1.12c11.788-2.852,21.766-10.753,28.857-22.848   c7.536-12.855,11.357-29.576,11.357-49.697V81.962C503.423,77.82,500.065,74.462,495.923,74.462z M329.014,32.59   c8.755-8.119,20.155-12.59,32.1-12.59c21.931,0,40.821,15.361,45.878,36.106c-38.96,2.374-57.007-18.08-57.772-18.972   c-1.583-1.895-3.997-2.889-6.454-2.66c-2.458,0.229-4.646,1.654-5.85,3.809c-5.08,9.09-11.829,14.278-21.266,16.177   C317.979,46.137,322.563,38.572,329.014,32.59z M361.114,133.48c-23.513,0-43.627-17.54-46.788-40.8   c-0.318-2.345-1.725-4.401-3.794-5.549c-2.07-1.147-4.559-1.25-6.716-0.28c-1.236,0.557-2.532,0.839-3.851,0.839   c-5.161,0-9.36-4.199-9.36-9.36c0-5.167,4.199-9.37,9.36-9.37c1.274,0,2.504,0.25,3.655,0.743c0.923,0.395,1.9,0.585,2.877,0.595   c0.026,0.001,0.05,0.009,0.077,0.009c16.537,0,29.132-5.559,38.249-16.941c9.251,7.284,27.625,17.938,55.962,17.938   c4.972,0,10.251-0.328,15.841-1.06c0.019-0.002,0.036-0.01,0.055-0.014c0.656-0.091,1.306-0.26,1.929-0.527   c1.151-0.493,2.378-0.744,3.646-0.744c3.787,0,7.048,2.262,8.525,5.502H370.82c-4.142,0-7.5,3.358-7.5,7.5v51.466   C362.587,133.461,361.851,133.48,361.114,133.48z M325.947,164.88h11.84l17.311,25.102c1.4,2.03,3.708,3.242,6.174,3.242   s4.774-1.212,6.174-3.242l17.311-25.102h11.852c0.992,2.187,2.308,5.219,3.806,9.001v0c6.951,17.556,18.324,52.545,19.683,96.115   c-39.075-4.834-78.566-4.835-117.641-0.001C304.107,217.642,320.319,177.368,325.947,164.88z M399.7,490.001   c-1.227-22.711-6.266-95.677-23.278-174.26c-0.747-3.451-3.799-5.913-7.33-5.913h-15.638c-3.531,0-6.583,2.462-7.33,5.913   c-17.013,78.583-22.051,151.548-23.278,174.26h-5.317c-13.126-66.233-14.931-176.917-15.178-204.866   c39.135-5.009,78.712-5.009,117.845,0c-0.246,27.947-2.049,138.62-15.178,204.866H399.7z M459.681,215.345   c-13.714,3.316-28.015-5.007-36.576-21.228c-3.051-10.562-6.182-19.29-8.743-25.759c-0.489-1.236-0.959-2.392-1.409-3.479h27.306   c4.142,0,7.5-3.358,7.5-7.5s-3.358-7.5-7.5-7.5H378.32V89.462h110.104v60.417H470.26c-4.142,0-7.5,3.358-7.5,7.5s3.358,7.5,7.5,7.5   h17.938C486.575,192.34,475.965,211.405,459.681,215.345z" fill="#0fa8b4"/>
	<path d="M433.372,94.632c-13.806,0-25.039,11.232-25.039,25.039s11.232,25.039,25.039,25.039s25.039-11.232,25.039-25.039   S447.178,94.632,433.372,94.632z M433.372,129.71c-5.535,0-10.039-4.503-10.039-10.039s4.503-10.039,10.039-10.039   s10.039,4.503,10.039,10.039S438.907,129.71,433.372,129.71z" fill="#0fa8b4"/>
	<path d="M464.604,143.13c6.457,2.664,12.831-4.535,9.395-10.619c-3.264-5.78-12.167-4.522-13.793,1.871   C459.298,137.954,461.231,141.705,464.604,143.13z" fill="#0fa8b4"/>
	<path d="M71.63,94.632c-13.806,0-25.039,11.232-25.039,25.039S57.824,144.71,71.63,144.71s25.039-11.232,25.039-25.039   S85.436,94.632,71.63,94.632z M71.63,129.71c-5.535,0-10.039-4.503-10.039-10.039s4.503-10.039,10.039-10.039   s10.039,4.503,10.039,10.039S77.165,129.71,71.63,129.71z" fill="#0fa8b4"/>
	<path d="M44.454,133.33c-2.563-6.071-11.493-6.034-13.913,0.15c-1.117,2.855-0.328,6.22,1.947,8.281   c2.337,2.118,5.837,2.523,8.607,1.035C44.476,140.979,45.835,136.857,44.454,133.33z" fill="#0fa8b4"/>
</g>















</symbol><symbol id="wedding-rings" viewBox="0 0 512 512">
<g>
	<g>
		<path d="M371.769,176.364l30.47-30.47l-21.71-25.265h-52.305l-21.71,25.265l30.47,30.47    c-29.557,3.279-57.658,14.863-80.982,33.507c-23.324-18.644-51.425-30.228-80.982-33.507l30.47-30.47l-21.71-25.265h-52.305    l-21.71,25.265l30.47,30.47C61.471,185.049,0,251.988,0,333.024c0,86.914,70.71,157.625,157.625,157.625    c35.834,0,70.513-12.2,98.375-34.472c27.862,22.272,62.542,34.472,98.375,34.472C441.29,490.649,512,419.938,512,333.024    C512,251.988,450.529,185.049,371.769,176.364z M327.237,145.11l7.97-9.275h38.337l7.969,9.275l-27.138,27.138L327.237,145.11z     M130.486,145.11l7.97-9.275h38.337l7.969,9.275l-27.138,27.138L130.486,145.11z M157.625,475.441    c-78.529,0-142.417-63.888-142.417-142.417s63.888-142.417,142.417-142.417c34.337,0,67.503,12.392,93.387,34.894    c8.035,6.984,15.308,14.898,21.618,23.522c17.933,24.508,27.412,53.555,27.412,84.002c0,27.573-7.775,54-22.563,76.946    c-0.192-0.192-0.376-0.39-0.566-0.583c-0.834-0.847-1.659-1.702-2.465-2.574c-0.357-0.386-0.705-0.781-1.055-1.172    c-0.661-0.736-1.315-1.479-1.955-2.233c-0.368-0.433-0.731-0.869-1.092-1.308c-0.618-0.751-1.225-1.513-1.823-2.28    c-0.337-0.432-0.675-0.863-1.005-1.3c-0.655-0.867-1.293-1.748-1.921-2.636c-0.195-0.275-0.396-0.545-0.589-0.823    c10.887-18.81,16.619-40.153,16.619-62.037c0-21.925-5.759-43.301-16.685-62.137l0.061-0.096l-2.58-4.072    c-4.983-7.859-10.817-15.117-17.407-21.662c-2.197-2.182-4.478-4.285-6.839-6.304l-6.234-5.332l-0.161,0.22    c-21.339-15.929-47.37-24.62-74.156-24.62c-68.375,0-124.002,55.628-124.002,124.002s55.627,124.001,124.002,124.001    c26.853,0,52.947-8.733,74.315-24.737c0.095,0.118,0.196,0.231,0.291,0.348c0.539,0.661,1.092,1.311,1.641,1.964    c0.423,0.501,0.841,1.007,1.269,1.503c0.586,0.677,1.185,1.342,1.782,2.01c0.409,0.457,0.812,0.92,1.226,1.372    c0.656,0.716,1.326,1.418,1.995,2.122c0.37,0.389,0.734,0.787,1.108,1.172c0.815,0.841,1.646,1.666,2.48,2.488    c0.228,0.225,0.449,0.456,0.677,0.68C219.606,465.022,189.107,475.441,157.625,475.441z M289.077,246.04    c18.767-14.095,41.689-21.81,65.298-21.81c59.989,0,108.794,48.805,108.794,108.794c0,59.989-48.805,108.792-108.794,108.792    c-23.608,0-46.531-7.715-65.298-21.81c17.142-25.819,26.172-55.735,26.172-86.984C315.249,301.775,306.22,271.858,289.077,246.04z     M256,379.489c-6.834-14.454-10.418-30.285-10.418-46.465c0-16.18,3.584-32.012,10.418-46.465    c6.834,14.454,10.418,30.285,10.418,46.465C266.418,349.204,262.834,365.035,256,379.489z M222.923,246.04    c-17.142,25.819-26.172,55.735-26.172,86.984c0,31.248,9.029,61.165,26.172,86.984c-18.767,14.095-41.69,21.81-65.298,21.81    c-59.989,0-108.794-48.804-108.794-108.793S97.636,224.23,157.625,224.23C181.234,224.23,204.156,231.945,222.923,246.04z     M354.375,475.441c-34.337,0-67.503-12.392-93.387-34.894c-8.034-6.983-15.308-14.898-21.618-23.522    c-17.933-24.508-27.412-53.555-27.412-84.001c0-27.573,7.775-54.001,22.562-76.946c0.194,0.194,0.38,0.394,0.572,0.589    c0.833,0.845,1.656,1.698,2.46,2.569c0.355,0.384,0.701,0.778,1.05,1.167c0.664,0.739,1.32,1.485,1.964,2.243    c0.364,0.429,0.724,0.862,1.082,1.296c0.622,0.756,1.233,1.522,1.835,2.294c0.334,0.428,0.669,0.855,0.997,1.289    c0.655,0.867,1.292,1.748,1.921,2.635c0.196,0.277,0.398,0.548,0.591,0.827c-10.887,18.81-16.619,40.153-16.619,62.038    c0,21.925,5.759,43.3,16.685,62.136l-0.062,0.096l2.581,4.072c6.643,10.478,14.8,19.888,24.245,27.966l6.234,5.332l0.161-0.221    c21.34,15.929,47.369,24.62,74.156,24.62c68.375,0,124.002-55.626,124.002-124.001s-55.626-124.001-124.002-124.001    c-26.853,0-52.947,8.733-74.315,24.738c-0.095-0.118-0.196-0.231-0.291-0.348c-0.538-0.66-1.089-1.309-1.638-1.96    c-0.424-0.503-0.844-1.011-1.274-1.508c-0.58-0.67-1.173-1.329-1.764-1.989c-0.416-0.464-0.825-0.935-1.246-1.394    c-0.642-0.701-1.298-1.387-1.951-2.075c-0.385-0.406-0.763-0.818-1.153-1.221c-0.781-0.805-1.577-1.594-2.373-2.382    c-0.262-0.259-0.516-0.525-0.78-0.783c24.804-19.075,55.302-29.493,86.786-29.493c78.529,0,142.417,63.888,142.417,142.417    C496.792,411.554,432.904,475.441,354.375,475.441z" fill="#0fa8b4"/>
	</g>
</g>
<g>
	<g>
		<rect x="248.396" y="21.351" width="15.208" height="47.344" fill="#0fa8b4"/>
	</g>
</g>
<g>
	<g>
		
			<rect x="294.983" y="52.217" transform="matrix(0.4198 -0.9076 0.9076 0.4198 130.5873 323.9224)" width="47.343" height="15.207" fill="#0fa8b4"/>
	</g>
</g>
<g>
	<g>
		<rect x="185.738" y="36.156" transform="matrix(0.9076 -0.4198 0.4198 0.9076 -7.2537 86.6932)" width="15.207" height="47.343" fill="#0fa8b4"/>
	</g>
</g>
<g>
</g>
<g>
</g>
<g>
</g>
<g>
</g>
<g>
</g>
<g>
</g>
<g>
</g>
<g>
</g>
<g>
</g>
<g>
</g>
<g>
</g>
<g>
</g>
<g>
</g>
<g>
</g>
<g>
</g>
</symbol></svg>